<?xml version="1.0" standalone="no"?>
<!DOCTYPE svg PUBLIC "-//W3C//DTD SVG 20010904//EN"
 "http://www.w3.org/TR/2001/REC-SVG-20010904/DTD/svg10.dtd">
<svg version="1.0" xmlns="http://www.w3.org/2000/svg"
 width="932.000000pt" height="932.000000pt" viewBox="0 0 932.000000 932.000000"
 preserveAspectRatio="xMidYMid meet">
<metadata>
Created by potrace 1.14, written by Peter Selinger 2001-2017
</metadata>
<g transform="translate(0.000000,932.000000) scale(0.100000,-0.100000)"
fill="#000000" stroke="none">
<path d="M3705 9094 c-16 -2 -47 -9 -67 -14 -35 -10 -38 -14 -38 -48 0 -37 46
-188 169 -562 38 -113 78 -239 91 -280 20 -66 44 -133 70 -195 42 -99 51 -125
46 -133 -3 -5 -36 -13 -73 -17 -36 -4 -72 -9 -80 -12 -8 -3 -13 2 -13 14 0 19
-35 93 -100 208 -18 33 -56 105 -85 160 -29 55 -76 143 -105 195 -30 52 -70
124 -90 160 -99 176 -205 330 -227 330 -51 0 -255 -176 -371 -320 -20 -25 -47
-56 -61 -70 -13 -14 -33 -44 -43 -68 -18 -40 -18 -44 -2 -70 16 -26 107 -107
162 -144 15 -10 46 -33 69 -50 23 -18 78 -59 122 -91 45 -32 87 -64 94 -71 7
-7 30 -25 52 -39 71 -47 119 -83 159 -120 22 -20 48 -39 58 -43 25 -8 22 -33
-4 -38 -200 -41 -436 -111 -553 -166 -22 -10 -60 -28 -85 -39 -25 -12 -70 -34
-100 -51 -30 -16 -61 -30 -67 -30 -7 0 -13 -4 -13 -8 0 -4 -19 -18 -42 -30
-85 -45 -258 -164 -292 -201 -11 -12 -23 -21 -27 -21 -5 0 -19 -9 -31 -19 -13
-11 -68 -57 -123 -102 -206 -172 -261 -228 -402 -415 -152 -202 -255 -385
-370 -654 -48 -111 -183 -503 -209 -605 -41 -161 -78 -384 -87 -518 l-2 -38
-21 19 c-65 62 -179 82 -223 40 -22 -20 -23 -26 -17 -102 4 -45 18 -129 31
-188 32 -135 32 -223 1 -385 -91 -476 -128 -1098 -91 -1553 9 -118 18 -228 19
-245 1 -26 -8 -36 -74 -82 -132 -94 -177 -130 -204 -166 l-27 -35 36 -123 c74
-250 184 -508 307 -717 98 -168 134 -218 218 -306 139 -147 515 -426 574 -426
13 0 13 -5 2 -37 -7 -21 -33 -119 -56 -218 -24 -99 -47 -184 -51 -189 -5 -5
-23 2 -43 17 -19 15 -39 27 -45 27 -6 0 -11 4 -11 9 0 16 -123 51 -181 51 -51
0 -61 -4 -107 -41 -56 -46 -102 -134 -102 -195 l0 -34 55 0 55 0 0 32 c0 17 9
51 21 75 47 97 148 96 279 -2 44 -32 56 -47 58 -73 3 -31 4 -32 53 -32 l49 0
0 34 c0 42 31 208 71 374 32 137 36 184 15 205 -8 7 -12 24 -9 39 4 19 -2 30
-21 45 -14 11 -22 24 -18 28 4 5 1 5 -5 1 -20 -11 -230 134 -215 148 3 4 -1 4
-9 1 -9 -3 -23 3 -35 16 l-19 22 25 -12 c23 -11 24 -11 6 3 -10 9 -23 13 -28
10 -5 -3 -21 6 -35 20 -14 14 -30 26 -35 26 -6 0 -8 7 -5 14 4 10 1 13 -8 10
-17 -7 -107 74 -98 89 3 5 1 7 -4 4 -12 -8 -89 72 -118 121 -11 17 -23 32 -27
32 -4 0 -8 4 -8 9 0 6 -22 47 -50 93 -33 55 -48 90 -44 103 4 14 3 16 -4 6 -7
-10 -11 -10 -17 -1 -4 6 -5 12 -4 14 58 35 112 66 119 66 5 0 10 4 12 8 2 4
32 25 68 46 36 22 70 44 75 50 6 6 42 27 80 46 39 19 72 37 75 41 5 6 602 302
721 358 37 17 71 31 77 31 6 0 12 3 14 8 5 12 101 45 131 45 16 0 23 3 17 7
-12 7 225 100 254 100 8 0 18 4 21 10 3 6 20 10 36 10 17 0 43 7 59 15 15 8
53 16 83 17 31 1 54 5 52 8 -4 7 83 30 110 30 7 0 16 -12 20 -27 13 -54 34
-219 35 -275 0 -50 -3 -58 -19 -58 -25 0 -34 -26 -13 -36 9 -4 20 -6 25 -6 19
5 0 -324 -22 -368 -5 -8 -11 -30 -15 -49 -5 -29 -4 -32 9 -21 8 7 15 21 15 30
0 10 11 32 25 48 29 35 60 145 71 251 4 47 11 71 19 71 23 0 239 -39 277 -50
36 -10 37 -11 26 -43 -6 -18 -15 -37 -19 -43 -15 -18 -195 -532 -232 -659 -19
-66 -49 -187 -67 -270 -17 -82 -36 -167 -41 -189 l-11 -39 -21 45 c-22 46 -25
48 -52 48 -9 0 -12 6 -8 16 4 10 1 14 -8 13 -8 -2 -26 5 -41 15 -27 18 -58 16
-58 -3 0 -5 9 -13 20 -16 11 -3 20 -11 20 -17 0 -6 3 -9 6 -5 8 8 34 -18 34
-33 0 -6 6 -8 13 -4 6 4 9 4 5 -1 -4 -4 -1 -20 7 -35 13 -24 13 -33 1 -62 -24
-57 -60 -82 -126 -88 -40 -4 -61 -2 -64 6 -2 6 2 43 9 82 16 84 21 174 11 190
-5 8 -19 0 -42 -23 -57 -58 -174 -350 -174 -436 0 -54 18 -72 78 -74 43 -3 68
29 83 106 l12 60 31 -7 c70 -17 138 -1 187 43 49 44 71 85 71 130 0 34 1 35
35 28 29 -5 44 0 96 33 34 22 168 94 297 160 190 96 253 123 330 142 52 12
165 42 250 66 195 55 355 88 373 77 8 -4 50 -37 94 -73 79 -64 126 -117 283
-320 l81 -105 -5 -85 c-3 -47 -8 -176 -12 -288 l-6 -203 38 3 c33 2 39 7 38
25 0 12 3 20 7 18 3 -3 4 57 2 131 -5 146 2 228 18 218 6 -3 8 -13 5 -21 -3
-8 -1 -11 4 -8 5 3 20 -1 32 -9 13 -8 37 -15 53 -16 57 -4 106 0 102 8 -2 4 9
17 24 30 16 13 29 19 29 13 0 -5 -5 -13 -10 -16 -6 -4 -8 -10 -5 -15 3 -4 7
-61 9 -127 2 -65 2 -109 -1 -98 -18 66 -86 111 -145 95 -54 -15 -107 -83 -100
-130 5 -30 34 -87 45 -88 7 -1 41 -5 77 -8 59 -5 67 -4 86 18 12 12 26 37 32
53 11 27 11 25 8 -22 l-4 -53 39 0 39 0 -2 263 c-2 292 -6 272 78 402 36 58
47 68 137 120 32 19 121 81 198 139 77 58 158 115 181 127 39 20 47 20 117 9
225 -35 298 -52 356 -82 54 -28 204 -115 214 -125 3 -2 -6 -11 -20 -20 -127
-88 -241 -258 -283 -420 -29 -110 -16 -413 17 -413 5 0 6 10 2 23 -4 12 -10
90 -12 173 -5 177 5 234 67 359 44 88 116 177 198 244 l53 44 35 -19 c59 -32
58 -36 -15 -91 -99 -75 -178 -184 -223 -313 -30 -83 -36 -247 -13 -344 10 -42
22 -76 27 -76 8 0 5 18 -9 58 -7 18 5 15 34 -8 33 -26 116 -50 167 -49 34 1
28 3 -31 14 -71 13 -146 47 -173 79 -18 23 -6 20 36 -9 49 -33 117 -52 229
-65 50 -5 110 -12 135 -15 l45 -6 -33 15 c-18 9 -72 20 -120 26 -169 21 -222
39 -279 93 -31 29 -33 35 -33 97 0 134 63 299 154 406 43 50 151 134 173 134
11 0 113 -59 132 -76 2 -2 -10 -20 -26 -41 -48 -60 -63 -98 -63 -156 0 -67 22
-89 133 -137 89 -38 134 -83 143 -142 8 -45 17 -41 48 21 57 111 41 152 -75
196 -98 38 -139 75 -139 127 0 41 23 98 40 98 13 0 12 -10 -5 -40 -21 -36 -18
-80 6 -106 12 -13 56 -37 99 -54 43 -17 88 -43 101 -56 32 -34 31 -96 -4 -166
l-26 -53 29 34 c36 42 86 136 95 178 12 58 -10 99 -73 136 l-56 33 2 49 c2 31
-7 84 -22 138 -15 48 -26 89 -26 92 0 10 66 4 128 -10 171 -41 343 -175 415
-325 47 -98 67 -181 67 -272 0 -70 -2 -76 -32 -106 -47 -45 -110 -68 -218 -82
-104 -14 -206 -38 -196 -47 3 -4 36 -1 73 5 38 6 104 16 148 22 57 7 100 20
148 44 38 19 63 28 56 20 -25 -30 -99 -65 -166 -79 l-68 -15 59 5 c39 2 80 14
118 33 61 30 64 29 48 -12 -5 -14 -6 -26 -1 -26 5 0 15 26 24 58 62 225 -12
478 -185 638 -93 86 -238 152 -357 162 -63 5 -63 5 -81 46 -9 23 -16 44 -13
49 7 11 92 8 164 -7 264 -56 472 -245 559 -506 36 -109 38 -336 4 -425 -4 -8
-2 -15 4 -15 18 0 42 127 42 222 -1 400 -301 721 -706 754 l-81 6 -38 117
c-54 163 -129 335 -170 392 -35 49 -43 69 -27 69 10 0 138 125 165 161 10 13
45 79 77 147 35 72 67 125 77 128 10 3 27 10 38 14 11 5 54 19 95 30 41 12 84
30 96 41 11 10 28 19 37 19 9 0 17 4 17 10 0 5 12 13 28 16 31 8 125 55 130
67 2 4 16 7 30 7 31 0 60 16 49 26 -4 4 11 15 33 25 22 10 40 23 40 29 0 6 4
9 9 5 5 -3 16 2 24 10 9 8 21 15 27 15 6 0 8 5 4 12 -5 8 -2 9 10 5 9 -4 15
-3 12 2 -5 8 15 30 43 46 9 5 12 4 7 -3 -4 -8 -2 -10 8 -6 8 3 12 12 9 20 -3
8 -1 14 5 14 5 0 26 18 47 39 21 22 44 37 52 34 9 -4 11 0 7 11 -3 9 -3 16 0
16 7 0 48 -22 56 -30 3 -3 16 -11 30 -18 62 -31 136 -75 179 -105 25 -18 63
-41 83 -52 20 -10 42 -29 49 -42 7 -12 15 -20 19 -18 9 5 74 -42 183 -132 21
-18 43 -33 49 -33 6 0 8 -7 5 -14 -4 -10 -1 -13 7 -10 7 3 16 -2 19 -10 4 -9
14 -16 22 -16 12 0 15 -6 10 -22 -5 -18 -4 -19 4 -8 5 8 14 11 18 6 4 -4 31
-28 60 -53 29 -25 50 -50 46 -56 -4 -6 -1 -7 6 -2 13 8 61 -31 61 -49 0 -18
-227 -267 -305 -335 -16 -14 -50 -45 -75 -68 -26 -24 -51 -39 -55 -35 -5 4 -5
2 -2 -4 4 -7 -10 -23 -31 -37 -20 -14 -77 -64 -127 -111 -49 -47 -91 -86 -93
-86 -1 0 -29 27 -61 59 -135 135 -206 122 -93 -17 32 -39 80 -108 106 -154 27
-46 64 -105 82 -133 19 -27 63 -115 100 -195 118 -258 199 -492 225 -648 l12
-72 69 0 68 0 -6 28 c-52 226 -181 566 -292 772 -80 149 -123 225 -147 256
-30 39 -32 60 -6 74 41 22 349 265 409 324 35 33 97 102 136 151 40 50 107
128 150 174 42 46 97 110 122 143 80 103 180 274 203 346 35 108 26 131 -118
272 -64 63 -151 144 -194 179 -45 37 -77 71 -77 82 0 10 9 56 19 101 42 182
56 331 55 593 0 305 -32 585 -89 800 -8 28 -23 85 -34 127 -12 43 -27 92 -35
110 -8 18 -22 53 -32 78 -10 25 -34 81 -54 125 -21 44 -41 91 -45 105 -4 14
-11 30 -15 35 -39 49 -67 221 -80 483 -5 115 -15 222 -21 239 -13 39 -54 58
-93 43 -31 -11 -88 -55 -154 -117 -25 -24 -46 -43 -48 -43 -1 0 -32 14 -69 30
-37 17 -73 30 -80 30 -7 0 -38 31 -68 69 -31 37 -94 104 -142 147 -51 47 -101
103 -122 139 -69 115 -241 356 -322 450 -14 17 -39 48 -56 70 -137 178 -455
498 -698 702 -130 110 -357 251 -632 393 -202 104 -458 194 -700 245 -33 7
-91 20 -130 29 -65 15 -244 45 -272 46 -7 0 -13 5 -13 11 0 15 491 495 640
625 117 103 220 210 220 229 0 23 -24 47 -80 82 -19 12 -48 34 -65 49 -16 14
-42 32 -56 39 -14 8 -53 32 -85 53 -93 61 -256 142 -287 142 -33 0 -105 -109
-193 -290 -82 -170 -97 -203 -148 -335 -52 -133 -114 -286 -157 -385 -15 -36
-36 -91 -46 -122 l-18 -58 -62 -2 c-132 -4 -118 -10 -115 52 2 30 14 116 27
190 42 230 63 388 80 575 9 99 20 220 25 269 11 107 6 121 -52 130 -52 7 -631
16 -673 10z m787 -1324 c84 -6 227 -20 318 -31 351 -43 580 -104 956 -258 353
-143 671 -375 1107 -807 151 -149 261 -278 350 -409 22 -33 44 -61 49 -63 4
-2 8 -8 8 -14 0 -5 15 -27 33 -48 18 -21 43 -59 55 -84 13 -25 27 -48 33 -51
5 -4 16 -19 24 -35 l15 -29 -78 35 c-750 343 -1627 -17 -1883 -773 -50 -148
-63 -234 -64 -408 0 -175 13 -261 65 -415 15 -47 27 -87 25 -89 -2 -1 -39 8
-82 23 -133 43 -244 59 -368 53 -116 -7 -207 -26 -266 -56 l-36 -19 -7 116
c-20 348 -147 635 -390 877 -658 656 -1784 484 -2196 -335 -26 -52 -56 -121
-66 -152 -11 -32 -21 -58 -24 -58 -3 0 -13 14 -22 30 -42 73 -163 79 -331 17
-21 -7 -43 -19 -49 -25 -23 -23 -36 -11 -73 66 -51 105 -94 168 -122 181 -34
16 -102 13 -150 -7 -44 -18 -111 -74 -139 -116 -15 -24 -44 -36 -44 -18 0 30
43 350 55 407 57 282 135 539 219 730 68 154 180 358 237 435 11 14 24 34 29
45 20 40 112 169 188 265 85 106 218 236 357 347 22 17 65 52 96 76 87 71 256
180 379 246 62 34 115 61 116 61 2 0 36 15 76 34 398 186 1062 292 1600 256z
m2548 -1809 c113 -26 167 -44 275 -95 99 -47 212 -118 262 -166 44 -41 107
-151 217 -375 30 -60 75 -152 100 -204 52 -107 112 -274 121 -342 4 -27 0 -93
-9 -157 -28 -186 -82 -328 -186 -484 -182 -272 -474 -465 -801 -529 -114 -22
-329 -26 -438 -8 l-68 11 -18 62 c-32 107 -71 154 -170 205 -63 32 -102 43
-329 86 -77 14 -148 32 -159 40 -36 25 -136 169 -181 260 -233 472 -138 1015
240 1375 207 197 417 294 739 344 68 10 322 -4 405 -23z m-3410 -415 c162 -35
331 -106 466 -196 95 -64 263 -230 323 -319 129 -192 211 -445 211 -656 0
-122 -37 -335 -58 -335 -4 0 -41 -31 -81 -69 -92 -87 -157 -122 -297 -160
-143 -39 -190 -58 -298 -120 -49 -28 -92 -51 -97 -51 -18 0 -116 -109 -139
-155 -20 -40 -26 -69 -28 -143 -2 -50 1 -105 6 -121 l10 -29 -62 -11 c-91 -16
-319 -14 -422 4 -250 44 -489 169 -675 355 -172 171 -299 411 -312 585 -4 44
-13 103 -21 130 -9 28 -16 85 -16 127 0 290 116 575 322 793 98 104 201 182
321 246 140 73 280 117 462 143 62 9 313 -3 385 -18z m4664 -149 c12 -241 43
-420 86 -509 11 -23 20 -46 20 -50 0 -5 11 -25 24 -46 24 -37 85 -209 125
-352 43 -157 74 -357 96 -620 26 -312 -4 -923 -48 -966 -3 -3 -36 14 -74 39
-119 78 -239 138 -356 180 -16 6 -16 9 3 59 22 58 63 212 79 298 21 112 31
342 21 505 -12 191 -58 514 -91 625 -30 104 -37 146 -43 260 -10 191 -49 351
-127 522 -18 37 -30 71 -27 73 3 3 25 -6 50 -20 50 -28 57 -26 105 36 16 20
51 55 78 79 43 37 50 40 60 26 7 -8 15 -71 19 -139z m-6823 -517 c15 -30 37
-87 49 -127 12 -39 31 -81 41 -92 28 -30 73 -27 124 10 54 39 196 82 243 73
56 -11 66 -39 73 -199 8 -155 22 -301 39 -397 9 -48 9 -75 0 -114 -12 -51 -4
-101 30 -179 5 -11 27 -72 50 -135 46 -127 90 -233 192 -460 45 -99 98 -236
100 -260 3 -27 14 -24 -197 -50 -125 -15 -494 -82 -640 -116 -186 -44 -592
-217 -694 -296 -36 -27 -48 -23 -49 20 -12 392 -13 676 -3 897 17 372 35 575
78 870 16 112 12 249 -7 285 -13 24 -33 153 -34 215 -1 48 0 50 24 47 24 -2
91 -65 154 -145 42 -55 74 -51 122 16 90 126 186 201 249 195 26 -3 34 -11 56
-58z m6643 -467 c84 -466 95 -602 62 -823 -43 -295 -92 -474 -161 -593 -171
-295 -303 -454 -511 -617 -51 -40 -178 -116 -282 -169 -56 -28 -287 -121 -302
-121 -8 0 -15 50 -12 99 3 69 -66 318 -127 454 -47 105 -236 419 -291 484 -5
7 -10 16 -10 22 0 5 -3 11 -7 13 -15 6 -43 70 -43 99 0 15 11 52 24 81 14 29
31 73 39 98 l15 45 59 -5 c32 -3 141 -4 243 -4 171 1 193 4 300 31 362 95 642
294 827 588 43 68 117 227 139 298 10 31 21 57 25 57 3 0 9 -17 13 -37z
m-2796 -249 c95 -22 198 -74 277 -139 39 -31 81 -62 95 -68 14 -6 61 -45 105
-86 167 -156 363 -276 544 -333 40 -12 76 -29 79 -36 3 -8 -12 -63 -32 -124
-34 -101 -37 -113 -27 -159 11 -52 29 -85 71 -132 43 -50 164 -277 230 -432
23 -55 46 -104 51 -109 5 -6 9 -16 9 -23 0 -8 9 -33 20 -56 28 -57 60 -220 60
-304 0 -83 -26 -233 -51 -291 -24 -56 -227 -252 -317 -308 -165 -100 -332
-157 -682 -234 -324 -72 -954 -80 -1267 -16 -170 35 -354 109 -458 186 -68 50
-138 128 -154 170 -7 19 -17 44 -22 55 -23 54 -40 139 -45 220 -11 168 47 580
117 842 27 101 23 167 -11 193 -12 10 -93 130 -89 134 2 2 30 13 61 24 173 64
337 171 478 312 158 157 259 322 328 535 27 85 31 91 73 116 143 84 362 108
557 63z m-788 -269 c0 -14 -58 -118 -105 -190 -102 -154 -270 -303 -442 -393
-101 -52 -211 -95 -230 -88 -9 4 -13 28 -13 86 0 69 4 88 29 138 48 92 105
144 228 206 80 40 228 96 253 96 24 0 185 84 227 119 35 29 53 38 53 26z
m1694 -55 c77 -26 141 -74 171 -128 26 -46 32 -72 17 -72 -16 0 -116 37 -186
69 -74 34 -226 130 -226 143 0 17 166 8 224 -12z m-3904 -298 c0 -16 155 -162
235 -223 141 -105 361 -203 555 -245 105 -23 441 -27 531 -6 l55 13 79 -76
c79 -76 79 -77 79 -128 0 -29 -12 -104 -26 -167 -15 -63 -39 -173 -53 -245
-15 -71 -37 -183 -50 -249 -14 -65 -26 -164 -29 -220 l-4 -101 -34 2 c-92 5
-450 44 -474 52 -16 5 -53 12 -82 16 -94 11 -102 17 -102 79 0 30 -5 77 -10
103 -6 26 -19 119 -30 207 -17 131 -27 175 -59 258 -46 115 -135 271 -190 328
-38 40 -38 40 -113 40 -84 0 -88 2 -111 70 -9 25 -43 117 -77 205 -34 88 -68
180 -76 205 -8 25 -19 53 -24 62 -13 22 -13 28 0 28 6 0 10 -4 10 -8z m5876
-581 c24 -10 41 -21 37 -26 -5 -4 -3 -5 3 -2 6 4 34 -5 62 -20 36 -18 49 -30
45 -42 -4 -13 -3 -13 5 -2 8 11 21 6 66 -23 31 -20 59 -36 62 -36 6 0 72 -48
92 -67 7 -7 10 -18 6 -24 -4 -8 0 -9 15 -4 26 8 28 -10 4 -24 -24 -14 -7 -14
18 -1 14 8 25 7 41 -5 13 -8 17 -15 10 -15 -6 0 -12 -4 -12 -10 0 -5 7 -7 15
-4 9 4 40 -16 82 -53 38 -33 99 -84 138 -114 38 -30 79 -64 92 -76 12 -13 29
-23 38 -23 8 0 15 -2 15 -4 0 -2 -18 -37 -40 -77 -22 -41 -43 -82 -46 -91 -9
-26 -15 -23 -54 24 -19 23 -47 55 -62 70 -15 16 -27 35 -25 41 1 7 -3 11 -10
10 -17 -4 -74 57 -67 69 4 6 2 8 -3 5 -6 -4 -25 6 -42 21 -132 116 -179 154
-264 210 -42 29 -80 52 -83 52 -3 0 -21 12 -40 27 -20 14 -58 37 -85 50 -28
12 -48 27 -45 31 3 5 -6 7 -19 4 -16 -3 -27 1 -31 11 -3 8 -21 18 -40 21 l-34
7 25 42 c14 23 28 50 31 59 7 20 23 18 100 -11z m-5513 -122 c15 -26 27 -49
27 -51 0 -3 -21 -6 -47 -7 -142 -7 -372 -50 -512 -97 -24 -8 -50 -13 -57 -10
-7 3 -14 2 -16 -2 -3 -7 -136 -52 -152 -52 -4 0 -4 6 0 13 5 6 -7 -1 -26 -16
-20 -17 -41 -27 -52 -24 -10 3 -16 2 -13 -2 2 -5 -15 -14 -38 -21 -41 -12
-113 -42 -150 -61 -10 -6 -28 -7 -40 -4 -17 5 -19 4 -7 -4 12 -8 9 -12 -13
-20 -16 -6 -30 -11 -33 -11 -2 0 -45 -20 -95 -45 -50 -25 -96 -45 -101 -45 -5
0 -21 -9 -35 -20 -29 -23 -48 -26 -37 -7 4 6 4 9 0 5 -4 -3 -8 -10 -9 -15 -1
-8 -53 -38 -167 -95 -36 -18 -66 -36 -68 -40 -2 -5 -10 -8 -18 -8 -8 0 -14 -4
-14 -10 0 -5 -4 -10 -10 -10 -5 0 -48 -24 -96 -52 -47 -29 -97 -59 -110 -66
-13 -7 -24 -18 -24 -24 0 -5 -7 -7 -16 -4 -8 3 -13 2 -10 -3 3 -5 -7 -17 -22
-27 -15 -10 -42 -33 -59 -51 -18 -18 -35 -33 -38 -33 -3 0 -13 17 -21 37 -9
21 -22 52 -29 68 -8 17 -21 52 -30 79 l-16 49 33 28 c18 16 39 26 46 24 7 -3
10 -1 7 5 -9 14 129 92 151 84 14 -4 15 -3 5 4 -10 7 -10 11 -1 17 6 4 17 2
23 -4 6 -6 16 -11 21 -11 6 0 3 5 -6 11 -10 5 -18 13 -18 17 0 9 49 32 69 32
13 0 13 2 2 9 -17 11 30 44 184 129 165 92 479 218 517 207 16 -4 19 -3 9 3
-9 7 8 13 60 22 41 7 95 18 122 26 26 7 74 16 107 20 33 4 60 10 60 14 0 4 37
13 81 20 45 6 93 16 107 21 22 8 99 21 212 35 67 9 215 19 276 20 l61 0 26
-47z m5339 -94 c20 -14 42 -25 47 -25 6 0 27 -16 46 -36 20 -20 39 -34 42 -31
5 6 115 -65 141 -90 7 -7 16 -13 20 -13 13 0 77 -62 74 -72 -1 -5 1 -7 6 -4 4
2 23 -9 42 -24 19 -16 50 -42 68 -57 54 -45 332 -325 332 -334 0 -5 -8 -9 -17
-9 -12 0 -14 -3 -6 -8 8 -5 8 -11 -1 -24 -7 -10 -16 -15 -20 -11 -4 4 -4 0 -1
-9 11 -28 -10 -28 -41 1 -58 54 -170 148 -239 200 -38 29 -78 59 -88 67 -9 8
-22 14 -28 14 -5 0 -7 5 -4 10 3 6 0 10 -7 10 -17 0 -69 45 -63 54 3 3 2 4 -2
1 -7 -5 -44 16 -151 87 -40 26 -75 48 -78 48 -3 0 -20 10 -37 23 -18 12 -41
27 -52 33 -11 6 -37 20 -57 31 -21 11 -34 23 -31 27 4 4 0 4 -9 1 -9 -4 -19
-1 -24 6 -4 7 -2 15 4 17 7 2 12 9 12 16 0 7 8 21 18 32 9 10 26 36 37 57 11
20 22 37 25 37 3 0 22 -11 42 -25z m-5209 -172 l14 -48 -76 -6 c-101 -8 -234
-42 -434 -110 -31 -11 -63 -17 -70 -13 -6 4 -9 3 -4 -1 10 -11 -70 -48 -85
-39 -7 5 -8 3 -3 -6 6 -10 1 -12 -18 -8 -15 3 -24 2 -22 -2 7 -12 -46 -31 -69
-25 -15 5 -17 4 -7 -3 17 -12 -3 -27 -24 -18 -8 3 -14 1 -12 -5 2 -11 -108
-61 -140 -63 -12 0 -21 -5 -20 -10 1 -5 -11 -13 -28 -19 -16 -5 -37 -15 -45
-22 -8 -7 -26 -16 -40 -20 -14 -4 -32 -13 -40 -20 -8 -7 -26 -16 -40 -20 -14
-4 -32 -13 -40 -20 -8 -7 -26 -16 -40 -20 -14 -4 -31 -12 -39 -18 -20 -17 -83
-37 -94 -30 -6 3 -7 1 -3 -6 5 -7 -5 -17 -26 -27 -18 -8 -46 -22 -62 -31 -16
-8 -39 -16 -51 -17 -13 0 -21 -4 -19 -8 3 -4 -11 -15 -30 -25 -117 -60 -152
-79 -156 -83 -8 -8 -41 -28 -77 -46 -18 -9 -37 -22 -44 -30 -6 -8 -18 -14 -25
-14 -8 0 -14 -4 -14 -8 0 -5 -11 -14 -24 -20 -12 -5 -48 -31 -79 -56 -31 -25
-59 -46 -62 -46 -3 0 -23 37 -45 82 -41 83 -45 116 -13 104 10 -4 14 -4 10 0
-5 6 75 64 89 64 2 0 22 11 44 25 29 18 48 24 68 19 25 -6 26 -5 8 8 -19 15
-19 15 0 21 19 7 97 48 304 161 112 60 404 206 414 206 3 0 34 13 68 29 94 44
217 91 237 91 9 0 22 5 27 10 13 13 212 73 241 72 13 0 20 4 17 9 -3 5 6 10
20 10 27 2 32 2 56 11 46 16 210 51 242 51 21 0 38 3 38 7 0 9 104 27 167 29
42 1 42 1 56 -46z m577 -748 c10 -12 9 -20 -4 -39 -8 -14 -18 -43 -22 -65 -4
-24 -11 -38 -17 -34 -6 4 -7 -4 -3 -21 5 -20 4 -26 -5 -20 -7 4 -9 3 -6 -3 3
-5 -1 -38 -9 -74 -8 -35 -17 -79 -20 -99 -3 -19 -7 -42 -9 -50 -3 -8 -9 -46
-15 -85 -6 -38 -13 -83 -16 -100 -12 -74 -24 -179 -34 -289 -8 -93 -14 -122
-28 -132 -21 -16 -182 -103 -182 -99 0 15 77 329 87 355 3 8 7 26 9 39 2 13 8
27 14 31 6 4 10 11 9 16 -4 12 11 76 20 89 4 6 13 28 20 50 7 22 19 54 26 70
21 47 89 269 86 279 -1 5 6 3 15 -5 16 -13 16 -12 7 6 -10 18 -3 74 22 173 6
25 36 30 55 7z m214 -27 c2 -1 -1 -57 -5 -123 -5 -66 -11 -246 -13 -400 l-5
-279 -83 -39 c-46 -21 -91 -42 -100 -48 -15 -8 -18 -5 -17 18 1 76 32 302 69
508 23 127 46 257 51 290 15 90 14 88 60 82 22 -3 42 -7 43 -9z m120 -44 c3
-8 2 -12 -4 -9 -6 3 -10 10 -10 16 0 14 7 11 14 -7z m24 -57 c2 -15 8 -25 13
-22 5 3 6 -1 3 -9 -3 -9 -2 -16 4 -16 5 0 7 -12 4 -26 -3 -18 -1 -25 6 -20 6
3 13 -2 17 -13 11 -35 111 -128 221 -204 123 -85 302 -146 548 -187 125 -20
130 -22 162 -58 31 -34 134 -269 134 -305 0 -7 3 -17 7 -21 4 -4 19 -41 33
-83 18 -54 33 -82 53 -97 l29 -21 19 24 c10 13 19 35 19 50 1 42 52 148 70
144 12 -4 12 -2 2 5 -10 7 -9 20 9 66 29 79 41 100 101 183 61 84 72 89 208
97 127 8 350 39 350 48 0 5 10 8 23 8 23 0 156 34 192 49 25 10 117 33 119 29
1 -2 12 -41 24 -88 16 -64 18 -86 9 -92 -9 -6 -9 -8 2 -8 7 0 11 -6 8 -14 -4
-9 1 -17 11 -19 30 -9 -71 4 -148 19 -41 7 -109 15 -150 16 -69 2 -81 0 -146
-34 -39 -20 -114 -67 -165 -105 -123 -91 -204 -145 -257 -172 -45 -23 -123
-113 -148 -170 -7 -18 -14 -48 -14 -67 0 -18 -4 -36 -10 -39 -5 -3 -10 -17
-10 -31 0 -23 -1 -23 -38 14 -85 85 -185 69 -221 -37 -6 -19 -12 -46 -12 -60
-1 -14 -5 -1 -9 29 -5 40 -3 59 7 71 30 35 13 62 -143 228 -38 42 -97 105
-130 141 -32 36 -94 101 -136 144 -43 44 -78 83 -78 87 0 15 -48 18 -147 8
-136 -13 -249 -39 -391 -90 -85 -30 -83 -32 -78 74 3 52 2 83 -3 72 -12 -28
-17 120 -13 350 4 167 6 186 20 183 10 -2 18 -15 20 -31z m2806 -219 c7 -13
24 -52 36 -88 12 -36 28 -78 36 -95 7 -16 27 -73 45 -125 17 -52 35 -100 40
-105 15 -20 69 -176 69 -201 0 -14 4 -23 10 -19 8 5 50 -109 50 -136 0 -5 -19
3 -42 17 -24 13 -51 27 -60 31 -10 3 -18 9 -18 14 0 4 -23 20 -50 36 -53 29
-56 34 -65 98 -12 87 -111 400 -149 469 -32 60 -32 74 -3 87 12 5 33 16 47 24
33 19 37 19 54 -7z m-179 -303 c21 -75 44 -176 45 -193 0 -8 -6 -12 -12 -9 -7
2 -12 9 -11 15 2 7 -4 9 -14 5 -12 -5 -14 -3 -8 7 6 10 4 12 -8 7 -11 -4 -17
-1 -17 9 0 24 -71 254 -91 298 -11 22 -19 41 -19 43 0 2 19 13 43 23 l42 19
17 -82 c9 -45 24 -109 33 -142z m-1240 -66 c-35 -38 -73 -98 -112 -174 -32
-63 -60 -115 -63 -115 -4 0 -48 100 -98 225 -9 22 -26 58 -38 80 l-23 40 194
1 194 1 -54 -58z m-128 -623 c23 -20 26 -28 17 -43 -17 -28 -56 -43 -90 -34
-37 9 -42 38 -14 74 27 33 51 34 87 3z m-18 -340 c17 -20 10 -66 -10 -79 -13
-8 -24 -6 -43 7 -28 18 -26 35 10 70 19 20 28 20 43 2z"/>
<path d="M6410 5246 c-30 -6 -91 -30 -134 -51 -150 -76 -264 -220 -301 -385
-58 -254 78 -530 320 -649 93 -46 171 -61 312 -61 90 0 111 4 194 34 115 42
145 55 184 81 84 56 158 153 185 245 35 118 20 310 -32 420 -100 206 -233 329
-400 369 -61 14 -257 13 -328 -3z m326 -67 c97 -29 163 -62 207 -104 61 -58
131 -175 162 -269 25 -78 27 -94 22 -188 -8 -149 -41 -229 -136 -324 -76 -77
-121 -103 -222 -129 -120 -32 -351 -3 -461 58 -22 12 -51 28 -64 35 -12 7 -49
42 -82 77 -52 57 -64 77 -91 161 -42 125 -49 208 -26 309 37 169 153 308 291
351 153 47 293 56 400 23z"/>
<path d="M6203 4790 c-86 -52 -83 -188 6 -263 109 -91 246 14 217 167 -4 22
-22 52 -45 76 -35 37 -42 40 -92 40 -36 0 -65 -7 -86 -20z"/>
<path d="M3210 5089 c-207 -24 -355 -101 -486 -254 -37 -44 -50 -73 -80 -172
-35 -114 -40 -310 -11 -413 21 -73 84 -210 98 -210 5 0 9 -6 9 -14 0 -24 109
-122 164 -149 76 -36 160 -63 260 -83 295 -56 665 86 772 298 32 63 58 245 50
344 -18 223 -98 396 -233 504 -98 78 -176 115 -292 140 -101 21 -132 22 -251
9z m253 -75 c162 -42 309 -160 376 -305 59 -125 81 -219 81 -342 0 -123 -16
-182 -80 -286 -83 -138 -239 -208 -485 -218 -225 -9 -406 43 -511 146 -56 55
-106 129 -135 203 -44 110 -53 303 -20 425 20 72 105 187 186 249 56 44 216
123 267 133 75 15 255 12 321 -5z"/>
<path d="M3554 4641 c-56 -34 -74 -67 -74 -136 0 -53 4 -68 31 -104 52 -73
135 -91 203 -45 43 30 66 75 66 134 0 54 -21 102 -56 128 -16 12 -34 26 -41
32 -20 17 -96 11 -129 -9z"/>
<path d="M5443 3906 c-60 -51 -65 -126 -8 -126 32 0 97 83 93 120 -4 36 -46
39 -85 6z"/>
<path d="M4761 3861 c-19 -12 -10 -22 60 -75 68 -51 109 -60 109 -23 -1 35
-30 64 -88 86 -60 24 -62 24 -81 12z"/>
<path d="M8680 2610 c-9 -6 -10 -10 -3 -10 6 0 15 5 18 10 8 12 4 12 -15 0z"/>
<path d="M2500 2836 c0 -10 28 -13 41 -5 10 6 7 9 -13 9 -16 0 -28 -2 -28 -4z"/>
<path d="M1958 2773 c7 -3 16 -2 19 1 4 3 -2 6 -13 5 -11 0 -14 -3 -6 -6z"/>
<path d="M1053 2453 c9 -2 23 -2 30 0 6 3 -1 5 -18 5 -16 0 -22 -2 -12 -5z"/>
<path d="M840 2330 c0 -5 5 -10 10 -10 6 0 10 5 10 10 0 6 -4 10 -10 10 -5 0
-10 -4 -10 -10z"/>
<path d="M899 2153 c-13 -16 -12 -17 4 -4 9 7 17 15 17 17 0 8 -8 3 -21 -13z"/>
<path d="M615 2139 c-11 -17 1 -21 15 -4 8 9 8 15 2 15 -6 0 -14 -5 -17 -11z"/>
<path d="M768 2093 c7 -3 16 -2 19 1 4 3 -2 6 -13 5 -11 0 -14 -3 -6 -6z"/>
<path d="M8070 2701 c0 -6 4 -13 10 -16 6 -3 7 1 4 9 -7 18 -14 21 -14 7z"/>
<path d="M2428 2513 c7 -3 16 -2 19 1 4 3 -2 6 -13 5 -11 0 -14 -3 -6 -6z"/>
<path d="M2210 2440 c-8 -5 -10 -10 -5 -10 6 0 17 5 25 10 8 5 11 10 5 10 -5
0 -17 -5 -25 -10z"/>
<path d="M1228 1923 c7 -3 16 -2 19 1 4 3 -2 6 -13 5 -11 0 -14 -3 -6 -6z"/>
<path d="M781 1654 c0 -11 3 -14 6 -6 3 7 2 16 -1 19 -3 4 -6 -2 -5 -13z"/>
<path d="M3321 1684 c0 -11 3 -14 6 -6 3 7 2 16 -1 19 -3 4 -6 -2 -5 -13z"/>
<path d="M3181 1194 c0 -11 3 -14 6 -6 3 7 2 16 -1 19 -3 4 -6 -2 -5 -13z"/>
<path d="M6572 1310 c0 -14 2 -19 5 -12 2 6 2 18 0 25 -3 6 -5 1 -5 -13z"/>
<path d="M6621 1064 c0 -11 3 -14 6 -6 3 7 2 16 -1 19 -3 4 -6 -2 -5 -13z"/>
<path d="M7768 2443 c7 -3 16 -2 19 1 4 3 -2 6 -13 5 -11 0 -14 -3 -6 -6z"/>
<path d="M7695 2390 c3 -5 8 -10 11 -10 2 0 4 5 4 10 0 6 -5 10 -11 10 -5 0
-7 -4 -4 -10z"/>
<path d="M7490 2240 c0 -5 5 -10 11 -10 5 0 7 5 4 10 -3 6 -8 10 -11 10 -2 0
-4 -4 -4 -10z"/>
<path d="M8560 1916 c0 -2 7 -9 15 -16 9 -7 15 -8 15 -2 0 5 -7 12 -15 16 -8
3 -15 4 -15 2z"/>
<path d="M7310 1860 c0 -5 7 -10 16 -10 8 0 12 5 9 10 -3 6 -10 10 -16 10 -5
0 -9 -4 -9 -10z"/>
<path d="M905 1370 c3 -5 8 -10 11 -10 2 0 4 5 4 10 0 6 -5 10 -11 10 -5 0 -7
-4 -4 -10z"/>
<path d="M7885 1300 c-3 -5 -1 -10 4 -10 6 0 11 5 11 10 0 6 -2 10 -4 10 -3 0
-8 -4 -11 -10z"/>
<path d="M2407 829 c7 -7 15 -10 18 -7 3 3 -2 9 -12 12 -14 6 -15 5 -6 -5z"/>
<path d="M6421 497 c-11 -24 -21 -61 -21 -82 0 -31 7 -45 39 -76 22 -20 62
-44 90 -54 49 -16 68 -35 36 -35 -28 0 -119 51 -157 88 l-38 36 0 -57 c0 -108
38 -150 170 -192 67 -22 164 -69 207 -101 17 -13 43 -24 57 -24 22 0 26 4 26
30 0 59 -52 125 -122 154 -41 16 -53 42 -15 31 54 -16 113 -62 138 -109 l26
-48 7 32 c10 54 7 120 -9 149 -18 36 -82 78 -182 121 -104 45 -183 98 -204
138 -25 48 -24 48 -48 -1z"/>
<path d="M7155 471 c-50 -31 -72 -62 -104 -149 -41 -110 -52 -130 -101 -178
l-41 -41 47 -12 c150 -38 199 -34 261 23 29 26 39 47 58 116 12 47 25 92 29
101 6 13 0 18 -28 23 -49 9 -84 -2 -102 -33 l-15 -26 7 25 c11 44 42 61 104
57 53 -4 58 -2 98 34 24 20 39 40 34 43 -19 12 -138 36 -177 36 -22 0 -53 -8
-70 -19z m-3 -253 c-20 -45 -58 -86 -68 -75 -4 3 5 20 19 37 15 17 32 49 38
71 10 31 15 37 21 25 6 -10 2 -31 -10 -58z"/>
<path d="M4905 280 c3 -5 10 -10 16 -10 5 0 9 5 9 10 0 6 -7 10 -16 10 -8 0
-12 -4 -9 -10z"/>
</g>
</svg>
