<?xml version="1.0" standalone="no"?>
<!DOCTYPE svg PUBLIC "-//W3C//DTD SVG 20010904//EN"
 "http://www.w3.org/TR/2001/REC-SVG-20010904/DTD/svg10.dtd">
<svg version="1.0" xmlns="http://www.w3.org/2000/svg"
 width="700.000000pt" height="700.000000pt" viewBox="0 0 700.000000 700.000000"
 preserveAspectRatio="xMidYMid meet">
<metadata>
Created by potrace 1.14, written by Peter Selinger 2001-2017
</metadata>
<g transform="translate(0.000000,700.000000) scale(0.100000,-0.100000)"
fill="#000000" stroke="none">
<path d="M4911 6765 c-104 -29 -222 -128 -274 -230 -39 -79 -41 -103 -43 -695
-1 -316 -3 -578 -3 -582 -1 -4 -173 -8 -383 -10 -366 -4 -386 -5 -442 -26 -91
-34 -145 -70 -213 -141 -35 -35 -63 -59 -63 -52 0 8 -28 40 -62 73 -71 68
-172 121 -263 137 -41 8 -438 11 -1252 11 l-1192 0 -30 -31 c-17 -17 -31 -40
-32 -52 -1 -12 -2 -71 -3 -132 l-1 -110 -179 -2 c-125 -1 -186 -5 -203 -14
-57 -31 -54 117 -54 -2230 0 -1745 3 -2165 13 -2187 29 -60 -218 -56 3273 -56
2483 0 3205 3 3222 13 57 30 54 -120 53 2231 0 2369 4 2203 -59 2229 -18 8
-92 13 -202 14 l-174 2 -1 125 c-2 197 -5 200 -261 200 l-178 0 1 178 c1 263
5 260 -256 260 l-175 -1 -6 374 c-3 222 -9 386 -16 404 -51 146 -156 251 -298
298 -56 18 -180 19 -244 2z m202 -219 c49 -20 93 -64 117 -117 18 -41 20 -65
20 -391 0 -272 -3 -348 -12 -349 -20 0 -380 -1 -405 0 l-22 1 2 358 c2 382 2
379 54 439 55 63 171 91 246 59z m135 -2553 l-3 -1478 -215 0 -215 0 -2 1477
-1 1477 219 1 219 1 -2 -1478z m441 1367 l1 -110 -110 0 -110 0 0 110 0 110
109 0 108 0 2 -110z m-4484 -901 l0 -571 33 -29 c35 -32 85 -39 125 -17 26 13
13 -2 156 187 63 83 117 151 121 151 4 0 63 -74 131 -164 68 -90 134 -169 147
-175 13 -6 41 -11 63 -11 45 0 84 32 93 78 3 15 4 273 3 575 l-2 547 522 0
c584 0 574 1 670 -71 39 -29 60 -55 87 -110 l36 -71 0 -1842 0 -1842 -1247 2
c-687 1 -1253 2 -1258 3 -7 1 -10 661 -9 1964 1 1079 2 1963 3 1965 0 1 74 2
164 2 l162 0 0 -571z m655 189 l0 -382 -67 91 c-73 98 -104 123 -152 123 -51
0 -73 -18 -146 -116 -38 -52 -70 -94 -71 -94 -1 0 -2 171 -2 380 l1 380 218 0
219 0 0 -382z m2734 -945 l-1 -1328 38 -135 c21 -74 47 -164 58 -200 11 -36
27 -90 35 -120 25 -95 86 -304 97 -332 10 -24 61 -58 88 -58 12 0 12 2 12
-134 0 -143 21 -182 104 -190 41 -4 92 24 105 60 6 14 10 78 10 143 l0 118 39
15 c21 9 46 27 55 41 14 21 124 388 212 710 l24 88 0 1325 0 1324 109 0 109 0
0 -147 c1 -82 1 -156 1 -165 1 -14 14 -16 109 -15 l107 2 2 150 c0 83 2 156 2
163 1 10 27 12 109 10 l107 -3 0 -1965 0 -1965 -1258 0 -1257 -1 2 1851 3
1850 22 45 c26 52 74 108 118 137 73 49 97 52 480 53 l360 0 -1 -1327z m-3945
992 c3 -4 6 -847 6 -1874 1 -1747 2 -1870 18 -1894 37 -57 -158 -54 2832 -52
2260 1 2765 4 2787 14 15 8 32 28 40 45 10 25 12 396 13 1898 0 1263 3 1868
10 1869 76 5 198 2 202 -5 8 -12 7 -4021 0 -4032 -6 -11 -6103 -12 -6113 -1
-5 5 -10 3908 -5 4019 1 9 9 18 18 20 28 5 185 0 192 -7z m4561 -2409 c0 -6
-33 -129 -72 -273 -73 -261 -73 -263 -100 -263 -25 0 -29 6 -47 68 -38 129
-131 462 -131 473 0 3 79 5 175 5 116 0 175 -4 175 -10z"/>
<path d="M1097 3493 c-2 -5 -3 -53 -3 -108 l1 -100 983 -2 982 -3 1 48 c1 53
1 128 0 155 -1 16 -55 17 -980 17 -539 0 -982 -3 -984 -7z"/>
<path d="M1099 2845 c-1 0 -3 -48 -4 -107 -2 -72 1 -108 9 -110 6 -3 301 -4
656 -4 l645 1 0 110 0 109 -653 1 c-358 0 -653 0 -653 0z"/>
<path d="M2637 2840 c-8 -3 -12 -37 -12 -107 -1 -57 2 -104 5 -104 29 -6 423
-2 427 4 10 16 8 199 -2 205 -12 7 -400 9 -418 2z"/>
<path d="M1094 2079 l-1 -109 984 0 c779 0 983 3 984 13 1 14 1 164 0 189 -1
16 -67 17 -984 17 l-983 0 0 -110z"/>
</g>
</svg>
