<?xml version="1.0" encoding="utf-8"?>
<!-- Generator: Adobe Illustrator 22.0.1, SVG Export Plug-In . SVG Version: 6.00 Build 0)  -->
<svg version="1.1" id="Layer_1" xmlns="http://www.w3.org/2000/svg" xmlns:xlink="http://www.w3.org/1999/xlink" x="0px" y="0px"
	 viewBox="0 0 940 720" style="enable-background:new 0 0 940 720;" xml:space="preserve">
<style type="text/css">
	.st0{fill:url(#SVGID_1_);}
	.st1{fill:url(#SVGID_2_);}
	.st2{fill:url(#SVGID_3_);}
	.st3{fill:url(#SVGID_4_);}
	.st4{fill:url(#SVGID_5_);}
	.st5{fill:url(#SVGID_6_);}
	.st6{fill:url(#SVGID_7_);}
	.st7{fill:url(#SVGID_8_);}
	.st8{fill:url(#SVGID_9_);}
	.st9{fill:url(#SVGID_10_);}
	.st10{fill:url(#SVGID_11_);}
	.st11{fill:url(#SVGID_12_);}
	.st12{fill:url(#SVGID_13_);}
	.st13{fill:url(#SVGID_14_);}
	.st14{fill:url(#SVGID_15_);}
	.st15{fill:url(#SVGID_16_);}
	.st16{fill:url(#SVGID_17_);}
	.st17{fill:url(#SVGID_18_);}
	.st18{fill:url(#SVGID_19_);}
	.st19{fill:url(#SVGID_20_);}
	.st20{fill:url(#SVGID_21_);}
	.st21{fill:url(#SVGID_22_);}
	.st22{fill:url(#SVGID_23_);}
	.st23{fill:url(#SVGID_24_);}
	.st24{fill:url(#SVGID_25_);}
	.st25{fill:url(#SVGID_26_);}
	.st26{fill:url(#SVGID_27_);}
	.st27{fill:url(#SVGID_28_);}
	.st28{fill:url(#SVGID_29_);}
	.st29{fill:url(#SVGID_30_);}
	.st30{fill:url(#SVGID_31_);}
	.st31{fill:url(#SVGID_32_);}
	.st32{fill:url(#SVGID_33_);}
	.st33{fill:url(#SVGID_34_);}
	.st34{fill:url(#SVGID_35_);}
</style>
<g transform="translate(91.881 -228.75)">
	<g transform="matrix(-1 0 0 1 755.44 -.88158)">
		<linearGradient id="SVGID_1_" gradientUnits="userSpaceOnUse" x1="216.9" y1="908.6601" x2="86.7" y2="908.6601">
			<stop  offset="0.2974" style="stop-color:#34D399"/>
			<stop  offset="1" style="stop-color:#3B82F6"/>
		</linearGradient>
		<path class="st0" d="M347.1,896.5c-50.3-34.6-92-4.2-130.2,30.1C266.2,940,318.5,946.1,347.1,896.5z"/>
		<linearGradient id="SVGID_2_" gradientUnits="userSpaceOnUse" x1="233.1" y1="823.7702" x2="131.2" y2="823.7702">
			<stop  offset="0.2974" style="stop-color:#34D399"/>
			<stop  offset="1" style="stop-color:#3B82F6"/>
		</linearGradient>
		<path class="st1" d="M335,866.7c-2.2-61-51.5-76.3-101.9-86.5C251.8,827.8,278.1,873.3,335,866.7z"/>
		<linearGradient id="SVGID_3_" gradientUnits="userSpaceOnUse" x1="125.2" y1="876.2857" x2="-7.1" y2="876.2857">
			<stop  offset="0.2974" style="stop-color:#34D399"/>
			<stop  offset="1" style="stop-color:#3B82F6"/>
		</linearGradient>
		<path class="st2" d="M257.5,869c-47.2-38.7-91.3-12-132.3,19C173.2,905.5,224.7,916,257.5,869z"/>
		<linearGradient id="SVGID_4_" gradientUnits="userSpaceOnUse" x1="166.3804" y1="776.75" x2="108.0098" y2="776.75">
			<stop  offset="0.2974" style="stop-color:#34D399"/>
			<stop  offset="1" style="stop-color:#3B82F6"/>
		</linearGradient>
		<path class="st3" d="M213.7,840c29.4-53.5-5-92-43.1-126.5C162.3,764,161.5,816.5,213.7,840z"/>
		<linearGradient id="SVGID_5_" gradientUnits="userSpaceOnUse" x1="43.2" y1="830.5579" x2="-89.2" y2="830.5579">
			<stop  offset="0.2974" style="stop-color:#34D399"/>
			<stop  offset="1" style="stop-color:#3B82F6"/>
		</linearGradient>
		<path class="st4" d="M175.6,838.9c-34.7-50.2-84.5-36.6-132.4-18.1C84.5,850.9,131.2,875.1,175.6,838.9z"/>
		<linearGradient id="SVGID_6_" gradientUnits="userSpaceOnUse" x1="101.1288" y1="727.3" x2="49.1324" y2="727.3">
			<stop  offset="0.2974" style="stop-color:#34D399"/>
			<stop  offset="1" style="stop-color:#3B82F6"/>
		</linearGradient>
		<path class="st5" d="M126.6,794.1c44.9-41.3,24.5-88.8-0.5-133.6C102,705.6,84.5,755.2,126.6,794.1L126.6,794.1z"/>
		<linearGradient id="SVGID_7_" gradientUnits="userSpaceOnUse" x1="-23.9" y1="769.8943" x2="-150.5" y2="769.8943">
			<stop  offset="0.2974" style="stop-color:#34D399"/>
			<stop  offset="1" style="stop-color:#3B82F6"/>
		</linearGradient>
		<path class="st6" d="M102.7,789c-24.5-55.9-76-52-126.6-42.9C11,783.5,52.2,816.2,102.7,789z"/>
		<linearGradient id="SVGID_8_" gradientUnits="userSpaceOnUse" x1="45.833" y1="669.3" x2="-8.0646" y2="669.3">
			<stop  offset="0.2974" style="stop-color:#34D399"/>
			<stop  offset="1" style="stop-color:#3B82F6"/>
		</linearGradient>
		<path class="st7" d="M61.8,735c51.8-32.3,40.6-82.7,24.3-131.4C54.1,643.5,27.7,689,61.8,735z"/>
		<linearGradient id="SVGID_9_" gradientUnits="userSpaceOnUse" x1="-72.4" y1="696.429" x2="-188.5" y2="696.429">
			<stop  offset="0.2974" style="stop-color:#34D399"/>
			<stop  offset="1" style="stop-color:#3B82F6"/>
		</linearGradient>
		<path class="st8" d="M43.7,727.4C30.2,667.9-21,662-72.4,661.4C-45.2,704.7-11,744.5,43.7,727.4z"/>
		<linearGradient id="SVGID_10_" gradientUnits="userSpaceOnUse" x1="17.2727" y1="576.1" x2="-39.875" y2="576.1">
			<stop  offset="0.2974" style="stop-color:#34D399"/>
			<stop  offset="1" style="stop-color:#3B82F6"/>
		</linearGradient>
		<path class="st9" d="M28.4,640c55.1-26.2,49.8-77.5,39.2-127.8C31.2,548.2-0.2,590.3,28.4,640z"/>
		<linearGradient id="SVGID_11_" gradientUnits="userSpaceOnUse" x1="-88.3" y1="618.0881" x2="-195.8" y2="618.0881">
			<stop  offset="0.2974" style="stop-color:#34D399"/>
			<stop  offset="1" style="stop-color:#3B82F6"/>
		</linearGradient>
		<path class="st10" d="M19.2,657c-6.3-60.7-56.6-72.7-107.5-79.4C-66.5,623.8-37.2,667.5,19.2,657z"/>
		<linearGradient id="SVGID_12_" gradientUnits="userSpaceOnUse" x1="1.2864" y1="482.6" x2="-69.3273" y2="482.6">
			<stop  offset="0.2974" style="stop-color:#34D399"/>
			<stop  offset="1" style="stop-color:#3B82F6"/>
		</linearGradient>
		<path class="st11" d="M5.2,540.5c59.6-13.2,65.8-64.4,66.7-115.8C28.5,451.6-11.6,485.7,5.2,540.5z"/>
		<linearGradient id="SVGID_13_" gradientUnits="userSpaceOnUse" x1="-75.7" y1="528.1" x2="-148.8559" y2="528.1">
			<stop  offset="0.2974" style="stop-color:#34D399"/>
			<stop  offset="1" style="stop-color:#3B82F6"/>
		</linearGradient>
		<path class="st12" d="M-6.5,585.3c17.2-58.5-24.6-88.7-69.2-114.4C-73,522-62.6,573.5-6.5,585.3z"/>
		<linearGradient id="SVGID_14_" gradientUnits="userSpaceOnUse" x1="28.5559" y1="378.5715" x2="-66.4883" y2="378.5715">
			<stop  offset="0.2974" style="stop-color:#34D399"/>
			<stop  offset="1" style="stop-color:#3B82F6"/>
		</linearGradient>
		<path class="st13" d="M28.6,425.5c61,3.1,80.5-44.7,95-94C74.6,346,26.9,368.2,28.6,425.5z"/>
		<linearGradient id="SVGID_15_" gradientUnits="userSpaceOnUse" x1="-47.3447" y1="425.55" x2="-101.2154" y2="425.55">
			<stop  offset="0.2974" style="stop-color:#34D399"/>
			<stop  offset="1" style="stop-color:#3B82F6"/>
		</linearGradient>
		<path class="st14" d="M-10.6,491.2c36.6-48.8,8-91.7-24.8-131.3C-50.8,408.6-59,460.6-10.6,491.2z"/>
		<linearGradient id="SVGID_16_" gradientUnits="userSpaceOnUse" x1="54.3928" y1="286.85" x2="-30.8143" y2="286.85">
			<stop  offset="0.2974" style="stop-color:#34D399"/>
			<stop  offset="1" style="stop-color:#3B82F6"/>
		</linearGradient>
		<path class="st15" d="M55.3,338.7c60.9-3.5,75.2-53.1,84.3-103.7C92.4,254.7,47.4,281.9,55.3,338.7z"/>
		<linearGradient id="SVGID_17_" gradientUnits="userSpaceOnUse" x1="-7.8252" y1="324.5" x2="-59.8008" y2="324.5">
			<stop  offset="0.2974" style="stop-color:#34D399"/>
			<stop  offset="1" style="stop-color:#3B82F6"/>
		</linearGradient>
		<path class="st16" d="M16.4,391.3c45.8-40.4,26.4-88.2,2.4-133.6C-6.2,302.3-24.8,351.5,16.4,391.3z"/>
	</g>
	
		<linearGradient id="SVGID_18_" gradientUnits="userSpaceOnUse" x1="33.138" y1="978.6601" x2="163.338" y2="978.6601" gradientTransform="matrix(1 0 0 1 183.762 -70)">
		<stop  offset="0.2974" style="stop-color:#34D399"/>
		<stop  offset="1" style="stop-color:#3B82F6"/>
	</linearGradient>
	<path class="st17" d="M347.1,896.5c-50.3-34.6-92-4.2-130.2,30.1C266.2,940,318.5,946.1,347.1,896.5z"/>
	
		<linearGradient id="SVGID_19_" gradientUnits="userSpaceOnUse" x1="49.338" y1="893.7702" x2="151.238" y2="893.7702" gradientTransform="matrix(1 0 0 1 183.762 -70)">
		<stop  offset="0.2974" style="stop-color:#34D399"/>
		<stop  offset="1" style="stop-color:#3B82F6"/>
	</linearGradient>
	<path class="st18" d="M335,866.7c-2.2-61-51.5-76.3-101.9-86.5C251.8,827.8,278.1,873.3,335,866.7z"/>
	
		<linearGradient id="SVGID_20_" gradientUnits="userSpaceOnUse" x1="-58.562" y1="946.2857" x2="73.738" y2="946.2857" gradientTransform="matrix(1 0 0 1 183.762 -70)">
		<stop  offset="0.2974" style="stop-color:#34D399"/>
		<stop  offset="1" style="stop-color:#3B82F6"/>
	</linearGradient>
	<path class="st19" d="M257.5,869c-47.2-38.7-91.3-12-132.3,19C173.2,905.5,224.7,916,257.5,869z"/>
	
		<linearGradient id="SVGID_21_" gradientUnits="userSpaceOnUse" x1="-17.3816" y1="846.75" x2="40.989" y2="846.75" gradientTransform="matrix(1 0 0 1 183.762 -70)">
		<stop  offset="0.2974" style="stop-color:#34D399"/>
		<stop  offset="1" style="stop-color:#3B82F6"/>
	</linearGradient>
	<path class="st20" d="M213.7,840c29.4-53.5-5-92-43.1-126.5C162.3,764,161.5,816.5,213.7,840z"/>
	
		<linearGradient id="SVGID_22_" gradientUnits="userSpaceOnUse" x1="-140.562" y1="900.5579" x2="-8.162" y2="900.5579" gradientTransform="matrix(1 0 0 1 183.762 -70)">
		<stop  offset="0.2974" style="stop-color:#34D399"/>
		<stop  offset="1" style="stop-color:#3B82F6"/>
	</linearGradient>
	<path class="st21" d="M175.6,838.9c-34.7-50.2-84.5-36.6-132.4-18.1C84.5,850.9,131.2,875.1,175.6,838.9z"/>
	
		<linearGradient id="SVGID_23_" gradientUnits="userSpaceOnUse" x1="-82.6332" y1="797.3" x2="-30.6368" y2="797.3" gradientTransform="matrix(1 0 0 1 183.762 -70)">
		<stop  offset="0.2974" style="stop-color:#34D399"/>
		<stop  offset="1" style="stop-color:#3B82F6"/>
	</linearGradient>
	<path class="st22" d="M126.6,794.1c44.9-41.3,24.5-88.8-0.5-133.6C102,705.6,84.5,755.2,126.6,794.1L126.6,794.1z"/>
	
		<linearGradient id="SVGID_24_" gradientUnits="userSpaceOnUse" x1="-207.662" y1="839.8943" x2="-81.062" y2="839.8943" gradientTransform="matrix(1 0 0 1 183.762 -70)">
		<stop  offset="0.2974" style="stop-color:#34D399"/>
		<stop  offset="1" style="stop-color:#3B82F6"/>
	</linearGradient>
	<path class="st23" d="M102.7,789c-24.5-55.9-76-52-126.6-42.9C11,783.5,52.2,816.2,102.7,789z"/>
	
		<linearGradient id="SVGID_25_" gradientUnits="userSpaceOnUse" x1="-137.929" y1="739.3" x2="-84.0314" y2="739.3" gradientTransform="matrix(1 0 0 1 183.762 -70)">
		<stop  offset="0.2974" style="stop-color:#34D399"/>
		<stop  offset="1" style="stop-color:#3B82F6"/>
	</linearGradient>
	<path class="st24" d="M61.8,735c51.8-32.3,40.6-82.7,24.3-131.4C54.1,643.5,27.7,689,61.8,735z"/>
	
		<linearGradient id="SVGID_26_" gradientUnits="userSpaceOnUse" x1="-256.162" y1="766.429" x2="-140.062" y2="766.429" gradientTransform="matrix(1 0 0 1 183.762 -70)">
		<stop  offset="0.2974" style="stop-color:#34D399"/>
		<stop  offset="1" style="stop-color:#3B82F6"/>
	</linearGradient>
	<path class="st25" d="M43.7,727.4C30.2,667.9-21,662-72.4,661.4C-45.2,704.7-11,744.5,43.7,727.4z"/>
	
		<linearGradient id="SVGID_27_" gradientUnits="userSpaceOnUse" x1="-166.4893" y1="646.1" x2="-109.3416" y2="646.1" gradientTransform="matrix(1 0 0 1 183.762 -70)">
		<stop  offset="0.2974" style="stop-color:#34D399"/>
		<stop  offset="1" style="stop-color:#3B82F6"/>
	</linearGradient>
	<path class="st26" d="M28.4,640c55.1-26.2,49.8-77.5,39.2-127.8C31.2,548.2-0.2,590.3,28.4,640z"/>
	
		<linearGradient id="SVGID_28_" gradientUnits="userSpaceOnUse" x1="-272.062" y1="688.0881" x2="-164.562" y2="688.0881" gradientTransform="matrix(1 0 0 1 183.762 -70)">
		<stop  offset="0.2974" style="stop-color:#34D399"/>
		<stop  offset="1" style="stop-color:#3B82F6"/>
	</linearGradient>
	<path class="st27" d="M19.2,657c-6.3-60.7-56.6-72.7-107.5-79.4C-66.5,623.8-37.2,667.5,19.2,657z"/>
	
		<linearGradient id="SVGID_29_" gradientUnits="userSpaceOnUse" x1="-182.4756" y1="552.6" x2="-111.862" y2="552.6" gradientTransform="matrix(1 0 0 1 183.762 -70)">
		<stop  offset="0.2974" style="stop-color:#34D399"/>
		<stop  offset="1" style="stop-color:#3B82F6"/>
	</linearGradient>
	<path class="st28" d="M5.2,540.5c59.6-13.2,65.8-64.4,66.7-115.8C28.5,451.6-11.6,485.7,5.2,540.5z"/>
	
		<linearGradient id="SVGID_30_" gradientUnits="userSpaceOnUse" x1="-259.462" y1="598.1" x2="-186.3061" y2="598.1" gradientTransform="matrix(1 0 0 1 183.762 -70)">
		<stop  offset="0.2974" style="stop-color:#34D399"/>
		<stop  offset="1" style="stop-color:#3B82F6"/>
	</linearGradient>
	<path class="st29" d="M-6.5,585.3c17.2-58.5-24.6-88.7-69.2-114.4C-73,522-62.6,573.5-6.5,585.3z"/>
	
		<linearGradient id="SVGID_31_" gradientUnits="userSpaceOnUse" x1="-155.2061" y1="448.5715" x2="-60.162" y2="448.5715" gradientTransform="matrix(1 0 0 1 183.762 -70)">
		<stop  offset="0.2974" style="stop-color:#34D399"/>
		<stop  offset="1" style="stop-color:#3B82F6"/>
	</linearGradient>
	<path class="st30" d="M28.6,425.5c61,3.1,80.5-44.7,95-94C74.6,346,26.9,368.2,28.6,425.5z"/>
	
		<linearGradient id="SVGID_32_" gradientUnits="userSpaceOnUse" x1="-231.1067" y1="495.55" x2="-177.2359" y2="495.55" gradientTransform="matrix(1 0 0 1 183.762 -70)">
		<stop  offset="0.2974" style="stop-color:#34D399"/>
		<stop  offset="1" style="stop-color:#3B82F6"/>
	</linearGradient>
	<path class="st31" d="M-10.6,491.2c36.6-48.8,8-91.7-24.8-131.3C-50.8,408.6-59,460.6-10.6,491.2z"/>
	
		<linearGradient id="SVGID_33_" gradientUnits="userSpaceOnUse" x1="-129.3692" y1="356.85" x2="-44.162" y2="356.85" gradientTransform="matrix(1 0 0 1 183.762 -70)">
		<stop  offset="0.2974" style="stop-color:#34D399"/>
		<stop  offset="1" style="stop-color:#3B82F6"/>
	</linearGradient>
	<path class="st32" d="M55.3,338.7c60.9-3.5,75.2-53.1,84.3-103.7C92.4,254.7,47.4,281.9,55.3,338.7z"/>
	
		<linearGradient id="SVGID_34_" gradientUnits="userSpaceOnUse" x1="-191.5872" y1="394.5" x2="-139.6115" y2="394.5" gradientTransform="matrix(1 0 0 1 183.762 -70)">
		<stop  offset="0.2974" style="stop-color:#34D399"/>
		<stop  offset="1" style="stop-color:#3B82F6"/>
	</linearGradient>
	<path class="st33" d="M16.4,391.3c45.8-40.4,26.4-88.2,2.4-133.6C-6.2,302.3-24.8,351.5,16.4,391.3z"/>
	
		<linearGradient id="SVGID_35_" gradientUnits="userSpaceOnUse" x1="176.1098" y1="954.2" x2="211.4664" y2="954.2" gradientTransform="matrix(1 0 0 1 183.762 -70)">
		<stop  offset="0.2974" style="stop-color:#34D399"/>
		<stop  offset="1" style="stop-color:#3B82F6"/>
	</linearGradient>
	<path class="st34" d="M395.2,884.2c0,9.8-7.9,17.7-17.7,17.7c-9.8,0-17.7-7.9-17.7-17.7s7.9-17.7,17.7-17.7
		C387.3,866.5,395.2,874.4,395.2,884.2L395.2,884.2z"/>
</g>
</svg>
