<?xml version="1.0" encoding="utf-8"?>
<!-- Generator: Adobe Illustrator 22.0.1, SVG Export Plug-In . SVG Version: 6.00 Build 0)  -->
<svg version="1.1" id="Layer_1" xmlns="http://www.w3.org/2000/svg" xmlns:xlink="http://www.w3.org/1999/xlink" x="0px" y="0px"
	 viewBox="0 0 940 720" style="enable-background:new 0 0 940 720;" xml:space="preserve">
<style type="text/css">
	.st0{fill:url(#SVGID_1_);}
	.st1{fill:url(#SVGID_2_);}
	.st2{fill:url(#SVGID_3_);}
	.st3{fill:url(#SVGID_4_);}
	.st4{fill:url(#SVGID_5_);}
	.st5{fill:url(#SVGID_6_);}
	.st6{fill:url(#SVGID_7_);}
	.st7{fill:url(#SVGID_8_);}
	.st8{fill:url(#SVGID_9_);}
	.st9{fill:url(#SVGID_10_);}
	.st10{fill:url(#SVGID_11_);}
	.st11{fill:url(#SVGID_12_);}
	.st12{fill:url(#SVGID_13_);}
	.st13{fill:url(#SVGID_14_);}
	.st14{fill:url(#SVGID_15_);}
	.st15{fill:url(#SVGID_16_);}
	.st16{fill:url(#SVGID_17_);}
	.st17{fill:url(#SVGID_18_);}
	.st18{fill:url(#SVGID_19_);}
	.st19{fill:url(#SVGID_20_);}
	.st20{fill:url(#SVGID_21_);}
	.st21{fill:url(#SVGID_22_);}
	.st22{fill:url(#SVGID_23_);}
	.st23{fill:url(#SVGID_24_);}
	.st24{fill:url(#SVGID_25_);}
	.st25{fill:url(#SVGID_26_);}
	.st26{fill:url(#SVGID_27_);}
	.st27{fill:url(#SVGID_28_);}
	.st28{fill:url(#SVGID_29_);}
	.st29{fill:url(#SVGID_30_);}
	.st30{fill:url(#SVGID_31_);}
	.st31{fill:url(#SVGID_32_);}
	.st32{fill:url(#SVGID_33_);}
	.st33{fill:url(#SVGID_34_);}
	.st34{fill:url(#SVGID_35_);}
</style>
<g transform="translate(91.881 -228.75)">
	<g transform="matrix(-1 0 0 1 755.44 -.88158)">
		<linearGradient id="SVGID_1_" gradientUnits="userSpaceOnUse" x1="347.09" y1="908.626" x2="477.29" y2="908.626">
			<stop  offset="0.2974" style="stop-color:#34D399"/>
			<stop  offset="1" style="stop-color:#3B82F6"/>
		</linearGradient>
		<path class="st0" d="M347.1,896.5c-50.3-34.6-92-4.2-130.2,30.1C266.2,940,318.5,946.1,347.1,896.5z"/>
		<linearGradient id="SVGID_2_" gradientUnits="userSpaceOnUse" x1="335.01" y1="823.7474" x2="436.91" y2="823.7474">
			<stop  offset="0.2974" style="stop-color:#34D399"/>
			<stop  offset="1" style="stop-color:#3B82F6"/>
		</linearGradient>
		<path class="st1" d="M335,866.7c-2.2-61-51.5-76.3-101.9-86.5C251.8,827.8,278.1,873.3,335,866.7z"/>
		<linearGradient id="SVGID_3_" gradientUnits="userSpaceOnUse" x1="257.46" y1="876.2712" x2="389.75" y2="876.2712">
			<stop  offset="0.2974" style="stop-color:#34D399"/>
			<stop  offset="1" style="stop-color:#3B82F6"/>
		</linearGradient>
		<path class="st2" d="M257.5,869c-47.2-38.7-91.3-12-132.3,19C173.2,905.5,224.7,916,257.5,869z"/>
		<linearGradient id="SVGID_4_" gradientUnits="userSpaceOnUse" x1="224.7688" y1="776.79" x2="283.1521" y2="776.79">
			<stop  offset="0.2974" style="stop-color:#34D399"/>
			<stop  offset="1" style="stop-color:#3B82F6"/>
		</linearGradient>
		<path class="st3" d="M213.7,840c29.4-53.5-5-92-43.1-126.5C162.3,764,161.5,816.5,213.7,840z"/>
		<linearGradient id="SVGID_5_" gradientUnits="userSpaceOnUse" x1="175.56" y1="830.5231" x2="307.98" y2="830.5231">
			<stop  offset="0.2974" style="stop-color:#34D399"/>
			<stop  offset="1" style="stop-color:#3B82F6"/>
		</linearGradient>
		<path class="st4" d="M175.6,838.9c-34.7-50.2-84.5-36.6-132.4-18.1C84.5,850.9,131.2,875.1,175.6,838.9z"/>
		<linearGradient id="SVGID_6_" gradientUnits="userSpaceOnUse" x1="153.0843" y1="727.2551" x2="205.0377" y2="727.2551">
			<stop  offset="0.2974" style="stop-color:#34D399"/>
			<stop  offset="1" style="stop-color:#3B82F6"/>
		</linearGradient>
		<path class="st5" d="M126.6,794.1c44.9-41.3,24.5-88.8-0.5-133.6C102,705.6,84.5,755.2,126.6,794.1L126.6,794.1z"/>
		<linearGradient id="SVGID_7_" gradientUnits="userSpaceOnUse" x1="102.71" y1="769.8998" x2="229.28" y2="769.8998">
			<stop  offset="0.2974" style="stop-color:#34D399"/>
			<stop  offset="1" style="stop-color:#3B82F6"/>
		</linearGradient>
		<path class="st6" d="M102.7,789c-24.5-55.9-76-52-126.6-42.9C11,783.5,52.2,816.2,102.7,789z"/>
		<linearGradient id="SVGID_8_" gradientUnits="userSpaceOnUse" x1="99.7072" y1="669.285" x2="153.5705" y2="669.285">
			<stop  offset="0.2974" style="stop-color:#34D399"/>
			<stop  offset="1" style="stop-color:#3B82F6"/>
		</linearGradient>
		<path class="st7" d="M61.8,735c51.8-32.3,40.6-82.7,24.3-131.4C54.1,643.5,27.7,689,61.8,735z"/>
		<linearGradient id="SVGID_9_" gradientUnits="userSpaceOnUse" x1="43.732" y1="696.4263" x2="159.902" y2="696.4263">
			<stop  offset="0.2974" style="stop-color:#34D399"/>
			<stop  offset="1" style="stop-color:#3B82F6"/>
		</linearGradient>
		<path class="st8" d="M43.7,727.4C30.2,667.9-21,662-72.4,661.4C-45.2,704.7-11,744.5,43.7,727.4z"/>
		<linearGradient id="SVGID_10_" gradientUnits="userSpaceOnUse" x1="74.3506" y1="576.09" x2="131.4683" y2="576.09">
			<stop  offset="0.2974" style="stop-color:#34D399"/>
			<stop  offset="1" style="stop-color:#3B82F6"/>
		</linearGradient>
		<path class="st9" d="M28.4,640c55.1-26.2,49.8-77.5,39.2-127.8C31.2,548.2-0.2,590.3,28.4,640z"/>
		<linearGradient id="SVGID_11_" gradientUnits="userSpaceOnUse" x1="19.165" y1="618.0833" x2="126.675" y2="618.0833">
			<stop  offset="0.2974" style="stop-color:#34D399"/>
			<stop  offset="1" style="stop-color:#3B82F6"/>
		</linearGradient>
		<path class="st10" d="M19.2,657c-6.3-60.7-56.6-72.7-107.5-79.4C-66.5,623.8-37.2,667.5,19.2,657z"/>
		<linearGradient id="SVGID_12_" gradientUnits="userSpaceOnUse" x1="71.8961" y1="482.59" x2="142.526" y2="482.59">
			<stop  offset="0.2974" style="stop-color:#34D399"/>
			<stop  offset="1" style="stop-color:#3B82F6"/>
		</linearGradient>
		<path class="st11" d="M5.2,540.5c59.6-13.2,65.8-64.4,66.7-115.8C28.5,451.6-11.6,485.7,5.2,540.5z"/>
		<linearGradient id="SVGID_13_" gradientUnits="userSpaceOnUse" x1="-2.5167" y1="528.075" x2="70.6357" y2="528.075">
			<stop  offset="0.2974" style="stop-color:#34D399"/>
			<stop  offset="1" style="stop-color:#3B82F6"/>
		</linearGradient>
		<path class="st12" d="M-6.5,585.3c17.2-58.5-24.6-88.7-69.2-114.4C-73,522-62.6,573.5-6.5,585.3z"/>
		<linearGradient id="SVGID_14_" gradientUnits="userSpaceOnUse" x1="123.579" y1="378.5474" x2="218.5863" y2="378.5474">
			<stop  offset="0.2974" style="stop-color:#34D399"/>
			<stop  offset="1" style="stop-color:#3B82F6"/>
		</linearGradient>
		<path class="st13" d="M28.6,425.5c61,3.1,80.5-44.7,95-94C74.6,346,26.9,368.2,28.6,425.5z"/>
		<linearGradient id="SVGID_15_" gradientUnits="userSpaceOnUse" x1="6.5028" y1="425.53" x2="60.3961" y2="425.53">
			<stop  offset="0.2974" style="stop-color:#34D399"/>
			<stop  offset="1" style="stop-color:#3B82F6"/>
		</linearGradient>
		<path class="st14" d="M-10.6,491.2c36.6-48.8,8-91.7-24.8-131.3C-50.8,408.6-59,460.6-10.6,491.2z"/>
		<linearGradient id="SVGID_16_" gradientUnits="userSpaceOnUse" x1="139.585" y1="286.82" x2="224.7881" y2="286.82">
			<stop  offset="0.2974" style="stop-color:#34D399"/>
			<stop  offset="1" style="stop-color:#3B82F6"/>
		</linearGradient>
		<path class="st15" d="M55.3,338.7c60.9-3.5,75.2-53.1,84.3-103.7C92.4,254.7,47.4,281.9,55.3,338.7z"/>
		<linearGradient id="SVGID_17_" gradientUnits="userSpaceOnUse" x1="44.1358" y1="324.515" x2="96.1117" y2="324.515">
			<stop  offset="0.2974" style="stop-color:#34D399"/>
			<stop  offset="1" style="stop-color:#3B82F6"/>
		</linearGradient>
		<path class="st16" d="M16.4,391.3c45.8-40.4,26.4-88.2,2.4-133.6C-6.2,302.3-24.8,351.5,16.4,391.3z"/>
	</g>
	<linearGradient id="SVGID_18_" gradientUnits="userSpaceOnUse" x1="216.89" y1="908.626" x2="347.09" y2="908.626">
		<stop  offset="0.2974" style="stop-color:#34D399"/>
		<stop  offset="1" style="stop-color:#3B82F6"/>
	</linearGradient>
	<path class="st17" d="M347.1,896.5c-50.3-34.6-92-4.2-130.2,30.1C266.2,940,318.5,946.1,347.1,896.5z"/>
	<linearGradient id="SVGID_19_" gradientUnits="userSpaceOnUse" x1="233.11" y1="823.7474" x2="335.01" y2="823.7474">
		<stop  offset="0.2974" style="stop-color:#34D399"/>
		<stop  offset="1" style="stop-color:#3B82F6"/>
	</linearGradient>
	<path class="st18" d="M335,866.7c-2.2-61-51.5-76.3-101.9-86.5C251.8,827.8,278.1,873.3,335,866.7z"/>
	<linearGradient id="SVGID_20_" gradientUnits="userSpaceOnUse" x1="125.17" y1="876.2712" x2="257.46" y2="876.2712">
		<stop  offset="0.2974" style="stop-color:#34D399"/>
		<stop  offset="1" style="stop-color:#3B82F6"/>
	</linearGradient>
	<path class="st19" d="M257.5,869c-47.2-38.7-91.3-12-132.3,19C173.2,905.5,224.7,916,257.5,869z"/>
	<linearGradient id="SVGID_21_" gradientUnits="userSpaceOnUse" x1="166.3855" y1="776.79" x2="224.7688" y2="776.79">
		<stop  offset="0.2974" style="stop-color:#34D399"/>
		<stop  offset="1" style="stop-color:#3B82F6"/>
	</linearGradient>
	<path class="st20" d="M213.7,840c29.4-53.5-5-92-43.1-126.5C162.3,764,161.5,816.5,213.7,840z"/>
	<linearGradient id="SVGID_22_" gradientUnits="userSpaceOnUse" x1="43.14" y1="830.5231" x2="175.56" y2="830.5231">
		<stop  offset="0.2974" style="stop-color:#34D399"/>
		<stop  offset="1" style="stop-color:#3B82F6"/>
	</linearGradient>
	<path class="st21" d="M175.6,838.9c-34.7-50.2-84.5-36.6-132.4-18.1C84.5,850.9,131.2,875.1,175.6,838.9z"/>
	<linearGradient id="SVGID_23_" gradientUnits="userSpaceOnUse" x1="101.1308" y1="727.2551" x2="153.0843" y2="727.2551">
		<stop  offset="0.2974" style="stop-color:#34D399"/>
		<stop  offset="1" style="stop-color:#3B82F6"/>
	</linearGradient>
	<path class="st22" d="M126.6,794.1c44.9-41.3,24.5-88.8-0.5-133.6C102,705.6,84.5,755.2,126.6,794.1L126.6,794.1z"/>
	<linearGradient id="SVGID_24_" gradientUnits="userSpaceOnUse" x1="-23.86" y1="769.8998" x2="102.71" y2="769.8998">
		<stop  offset="0.2974" style="stop-color:#34D399"/>
		<stop  offset="1" style="stop-color:#3B82F6"/>
	</linearGradient>
	<path class="st23" d="M102.7,789c-24.5-55.9-76-52-126.6-42.9C11,783.5,52.2,816.2,102.7,789z"/>
	<linearGradient id="SVGID_25_" gradientUnits="userSpaceOnUse" x1="45.8439" y1="669.285" x2="99.7072" y2="669.285">
		<stop  offset="0.2974" style="stop-color:#34D399"/>
		<stop  offset="1" style="stop-color:#3B82F6"/>
	</linearGradient>
	<path class="st24" d="M61.8,735c51.8-32.3,40.6-82.7,24.3-131.4C54.1,643.5,27.7,689,61.8,735z"/>
	<linearGradient id="SVGID_26_" gradientUnits="userSpaceOnUse" x1="-72.438" y1="696.4263" x2="43.732" y2="696.4263">
		<stop  offset="0.2974" style="stop-color:#34D399"/>
		<stop  offset="1" style="stop-color:#3B82F6"/>
	</linearGradient>
	<path class="st25" d="M43.7,727.4C30.2,667.9-21,662-72.4,661.4C-45.2,704.7-11,744.5,43.7,727.4z"/>
	<linearGradient id="SVGID_27_" gradientUnits="userSpaceOnUse" x1="17.2329" y1="576.09" x2="74.3506" y2="576.09">
		<stop  offset="0.2974" style="stop-color:#34D399"/>
		<stop  offset="1" style="stop-color:#3B82F6"/>
	</linearGradient>
	<path class="st26" d="M28.4,640c55.1-26.2,49.8-77.5,39.2-127.8C31.2,548.2-0.2,590.3,28.4,640z"/>
	<linearGradient id="SVGID_28_" gradientUnits="userSpaceOnUse" x1="-88.345" y1="618.0833" x2="19.165" y2="618.0833">
		<stop  offset="0.2974" style="stop-color:#34D399"/>
		<stop  offset="1" style="stop-color:#3B82F6"/>
	</linearGradient>
	<path class="st27" d="M19.2,657c-6.3-60.7-56.6-72.7-107.5-79.4C-66.5,623.8-37.2,667.5,19.2,657z"/>
	<linearGradient id="SVGID_29_" gradientUnits="userSpaceOnUse" x1="1.2662" y1="482.59" x2="71.8961" y2="482.59">
		<stop  offset="0.2974" style="stop-color:#34D399"/>
		<stop  offset="1" style="stop-color:#3B82F6"/>
	</linearGradient>
	<path class="st28" d="M5.2,540.5c59.6-13.2,65.8-64.4,66.7-115.8C28.5,451.6-11.6,485.7,5.2,540.5z"/>
	<linearGradient id="SVGID_30_" gradientUnits="userSpaceOnUse" x1="-75.669" y1="528.075" x2="-2.5167" y2="528.075">
		<stop  offset="0.2974" style="stop-color:#34D399"/>
		<stop  offset="1" style="stop-color:#3B82F6"/>
	</linearGradient>
	<path class="st29" d="M-6.5,585.3c17.2-58.5-24.6-88.7-69.2-114.4C-73,522-62.6,573.5-6.5,585.3z"/>
	<linearGradient id="SVGID_31_" gradientUnits="userSpaceOnUse" x1="28.5717" y1="378.5474" x2="123.579" y2="378.5474">
		<stop  offset="0.2974" style="stop-color:#34D399"/>
		<stop  offset="1" style="stop-color:#3B82F6"/>
	</linearGradient>
	<path class="st30" d="M28.6,425.5c61,3.1,80.5-44.7,95-94C74.6,346,26.9,368.2,28.6,425.5z"/>
	<linearGradient id="SVGID_32_" gradientUnits="userSpaceOnUse" x1="-47.3906" y1="425.53" x2="6.5028" y2="425.53">
		<stop  offset="0.2974" style="stop-color:#34D399"/>
		<stop  offset="1" style="stop-color:#3B82F6"/>
	</linearGradient>
	<path class="st31" d="M-10.6,491.2c36.6-48.8,8-91.7-24.8-131.3C-50.8,408.6-59,460.6-10.6,491.2z"/>
	<linearGradient id="SVGID_33_" gradientUnits="userSpaceOnUse" x1="54.3819" y1="286.82" x2="139.585" y2="286.82">
		<stop  offset="0.2974" style="stop-color:#34D399"/>
		<stop  offset="1" style="stop-color:#3B82F6"/>
	</linearGradient>
	<path class="st32" d="M55.3,338.7c60.9-3.5,75.2-53.1,84.3-103.7C92.4,254.7,47.4,281.9,55.3,338.7z"/>
	<linearGradient id="SVGID_34_" gradientUnits="userSpaceOnUse" x1="-7.8401" y1="324.515" x2="44.1358" y2="324.515">
		<stop  offset="0.2974" style="stop-color:#34D399"/>
		<stop  offset="1" style="stop-color:#3B82F6"/>
	</linearGradient>
	<path class="st33" d="M16.4,391.3c45.8-40.4,26.4-88.2,2.4-133.6C-6.2,302.3-24.8,351.5,16.4,391.3z"/>
	<linearGradient id="SVGID_35_" gradientUnits="userSpaceOnUse" x1="359.8718" y1="884.1512" x2="395.2284" y2="884.1512">
		<stop  offset="0.2974" style="stop-color:#34D399"/>
		<stop  offset="1" style="stop-color:#3B82F6"/>
	</linearGradient>
	<path class="st34" d="M395.2,884.2c0,9.8-7.9,17.7-17.7,17.7c-9.8,0-17.7-7.9-17.7-17.7c0-9.8,7.9-17.7,17.7-17.7
		C387.3,866.5,395.2,874.4,395.2,884.2L395.2,884.2z"/>
</g>
</svg>
