<svg xmlns="http://www.w3.org/2000/svg" xmlns:xlink="http://www.w3.org/1999/xlink" id="Layer_1" x="0" y="0" version="1.1" viewBox="0 0 64 64" xml:space="preserve" style="enable-background:new 0 0 64 64"><style type="text/css">.st0{fill:url(#SVGID_1_)}.st1{fill:url(#SVGID_2_)}.st2{fill:url(#SVGID_3_)}.st3{fill:url(#SVGID_4_)}.st4{fill:url(#SVGID_5_)}</style><linearGradient id="SVGID_1_" x1="2" x2="62" y1="31" y2="31" gradientUnits="userSpaceOnUse"><stop offset="0" style="stop-color:#3b82f6"/><stop offset="1" style="stop-color:#34d399"/></linearGradient><path d="M61,19h-3v-2c0-0.6-0.4-1-1-1h-3v-3c0-0.6-0.4-1-1-1h-3V6c0-2.2-1.8-4-4-4s-4,1.8-4,4v10h-6	c-1.3,0-2.6,0.5-3.5,1.5c-0.2,0.2-0.3,0.4-0.5,0.6c-0.1-0.2-0.3-0.4-0.5-0.6C30.6,16.5,29.3,16,28,16H7c-0.6,0-1,0.4-1,1v2H3	c-0.6,0-1,0.4-1,1v39c0,0.6,0.4,1,1,1h58c0.6,0,1-0.4,1-1V20C62,19.4,61.6,19,61,19z M50,14h2v2h-2V14z M44,6c0-1.1,0.9-2,2-2	s2,0.9,2,2v6h-4V6z M44,14h4v27h-4V14z M47.7,43l-1.4,5h-0.5l-1.4-5H47.7z M33,21c0-1.7,1.3-3,3-3h6v24c0,0.1,0,0.2,0,0.3l2,7	c0.1,0.4,0.5,0.7,1,0.7v2c0,0.6,0.4,1,1,1s1-0.4,1-1v-2c0.4,0,0.8-0.3,1-0.7l2-7c0-0.1,0-0.2,0-0.3V18h2v3h2v-3h2v36H33V21z M13,18	h4v7l-1.2-1.6c-0.3-0.4-1-0.5-1.4-0.2c-0.1,0.1-0.1,0.1-0.2,0.2L13,25V18z M8,18h3v10c0,0.6,0.4,1,1,1c0.3,0,0.6-0.1,0.8-0.4	l2.2-2.9l2.2,2.9c0.2,0.3,0.5,0.4,0.8,0.4c0.1,0,0.2,0,0.3,0c0.4-0.1,0.7-0.5,0.7-1V18h9c1.7,0,3,1.3,3,3v33H8V18z M60,58H4V21h2v34	c0,0.6,0.4,1,1,1h50c0.6,0,1-0.4,1-1V21h2V58z" class="st0"/><linearGradient id="SVGID_2_" x1="10" x2="28" y1="33" y2="33" gradientUnits="userSpaceOnUse"><stop offset="0" style="stop-color:#3b82f6"/><stop offset="1" style="stop-color:#34d399"/></linearGradient><rect width="18" height="2" x="10" y="32" class="st1"/><linearGradient id="SVGID_3_" x1="10" x2="22" y1="39" y2="39" gradientUnits="userSpaceOnUse"><stop offset="0" style="stop-color:#3b82f6"/><stop offset="1" style="stop-color:#34d399"/></linearGradient><rect width="12" height="2" x="10" y="38" class="st2"/><linearGradient id="SVGID_4_" x1="24" x2="28" y1="39" y2="39" gradientUnits="userSpaceOnUse"><stop offset="0" style="stop-color:#3b82f6"/><stop offset="1" style="stop-color:#34d399"/></linearGradient><rect width="4" height="2" x="24" y="38" class="st3"/><linearGradient id="SVGID_5_" x1="10" x2="28" y1="45" y2="45" gradientUnits="userSpaceOnUse"><stop offset="0" style="stop-color:#3b82f6"/><stop offset="1" style="stop-color:#34d399"/></linearGradient><rect width="18" height="2" x="10" y="44" class="st4"/></svg>