<svg xmlns="http://www.w3.org/2000/svg" xmlns:xlink="http://www.w3.org/1999/xlink" id="Layer_1" x="0" y="0" version="1.1" viewBox="0 0 940 720" xml:space="preserve" style="enable-background:new 0 0 940 720"><style type="text/css">.st0{fill:url(#SVGID_1_)}.st1{fill:url(#SVGID_2_)}.st2{fill:url(#SVGID_3_)}.st3{fill:url(#SVGID_4_)}.st4{fill:url(#SVGID_5_)}.st5{fill:url(#SVGID_6_)}.st6{fill:url(#SVGID_7_)}.st7{fill:url(#SVGID_8_)}.st8{fill:url(#SVGID_9_)}.st9{fill:url(#SVGID_10_)}.st10{fill:url(#SVGID_11_)}.st11{fill:url(#SVGID_12_)}.st12{fill:url(#SVGID_13_)}.st13{fill:url(#SVGID_14_)}.st14{fill:url(#SVGID_15_)}.st15{fill:url(#SVGID_16_)}.st16{fill:url(#SVGID_17_)}.st17{fill:url(#SVGID_18_)}.st18{fill:url(#SVGID_19_)}.st19{fill:url(#SVGID_20_)}.st20{fill:url(#SVGID_21_)}.st21{fill:url(#SVGID_22_)}.st22{fill:url(#SVGID_23_)}.st23{fill:url(#SVGID_24_)}.st24{fill:url(#SVGID_25_)}.st25{fill:url(#SVGID_26_)}.st26{fill:url(#SVGID_27_)}.st27{fill:url(#SVGID_28_)}.st28{fill:url(#SVGID_29_)}.st29{fill:url(#SVGID_30_)}.st30{fill:url(#SVGID_31_)}.st31{fill:url(#SVGID_32_)}.st32{fill:url(#SVGID_33_)}.st33{fill:url(#SVGID_34_)}.st34{fill:url(#SVGID_35_)}</style><g transform="translate(91.881 -228.75)"><g transform="matrix(-1 0 0 1 755.44 -.88158)"><linearGradient id="SVGID_1_" x1="347.09" x2="477.29" y1="908.626" y2="908.626" gradientUnits="userSpaceOnUse"><stop offset=".297" style="stop-color:#34d399"/><stop offset="1" style="stop-color:#3b82f6"/></linearGradient><path d="M347.1,896.5c-50.3-34.6-92-4.2-130.2,30.1C266.2,940,318.5,946.1,347.1,896.5z" class="st0"/><linearGradient id="SVGID_2_" x1="335.01" x2="436.91" y1="823.747" y2="823.747" gradientUnits="userSpaceOnUse"><stop offset=".297" style="stop-color:#34d399"/><stop offset="1" style="stop-color:#3b82f6"/></linearGradient><path d="M335,866.7c-2.2-61-51.5-76.3-101.9-86.5C251.8,827.8,278.1,873.3,335,866.7z" class="st1"/><linearGradient id="SVGID_3_" x1="257.46" x2="389.75" y1="876.271" y2="876.271" gradientUnits="userSpaceOnUse"><stop offset=".297" style="stop-color:#34d399"/><stop offset="1" style="stop-color:#3b82f6"/></linearGradient><path d="M257.5,869c-47.2-38.7-91.3-12-132.3,19C173.2,905.5,224.7,916,257.5,869z" class="st2"/><linearGradient id="SVGID_4_" x1="224.769" x2="283.152" y1="776.79" y2="776.79" gradientUnits="userSpaceOnUse"><stop offset=".297" style="stop-color:#34d399"/><stop offset="1" style="stop-color:#3b82f6"/></linearGradient><path d="M213.7,840c29.4-53.5-5-92-43.1-126.5C162.3,764,161.5,816.5,213.7,840z" class="st3"/><linearGradient id="SVGID_5_" x1="175.56" x2="307.98" y1="830.523" y2="830.523" gradientUnits="userSpaceOnUse"><stop offset=".297" style="stop-color:#34d399"/><stop offset="1" style="stop-color:#3b82f6"/></linearGradient><path d="M175.6,838.9c-34.7-50.2-84.5-36.6-132.4-18.1C84.5,850.9,131.2,875.1,175.6,838.9z" class="st4"/><linearGradient id="SVGID_6_" x1="153.084" x2="205.038" y1="727.255" y2="727.255" gradientUnits="userSpaceOnUse"><stop offset=".297" style="stop-color:#34d399"/><stop offset="1" style="stop-color:#3b82f6"/></linearGradient><path d="M126.6,794.1c44.9-41.3,24.5-88.8-0.5-133.6C102,705.6,84.5,755.2,126.6,794.1L126.6,794.1z" class="st5"/><linearGradient id="SVGID_7_" x1="102.71" x2="229.28" y1="769.9" y2="769.9" gradientUnits="userSpaceOnUse"><stop offset=".297" style="stop-color:#34d399"/><stop offset="1" style="stop-color:#3b82f6"/></linearGradient><path d="M102.7,789c-24.5-55.9-76-52-126.6-42.9C11,783.5,52.2,816.2,102.7,789z" class="st6"/><linearGradient id="SVGID_8_" x1="99.707" x2="153.571" y1="669.285" y2="669.285" gradientUnits="userSpaceOnUse"><stop offset=".297" style="stop-color:#34d399"/><stop offset="1" style="stop-color:#3b82f6"/></linearGradient><path d="M61.8,735c51.8-32.3,40.6-82.7,24.3-131.4C54.1,643.5,27.7,689,61.8,735z" class="st7"/><linearGradient id="SVGID_9_" x1="43.732" x2="159.902" y1="696.426" y2="696.426" gradientUnits="userSpaceOnUse"><stop offset=".297" style="stop-color:#34d399"/><stop offset="1" style="stop-color:#3b82f6"/></linearGradient><path d="M43.7,727.4C30.2,667.9-21,662-72.4,661.4C-45.2,704.7-11,744.5,43.7,727.4z" class="st8"/><linearGradient id="SVGID_10_" x1="74.351" x2="131.468" y1="576.09" y2="576.09" gradientUnits="userSpaceOnUse"><stop offset=".297" style="stop-color:#34d399"/><stop offset="1" style="stop-color:#3b82f6"/></linearGradient><path d="M28.4,640c55.1-26.2,49.8-77.5,39.2-127.8C31.2,548.2-0.2,590.3,28.4,640z" class="st9"/><linearGradient id="SVGID_11_" x1="19.165" x2="126.675" y1="618.083" y2="618.083" gradientUnits="userSpaceOnUse"><stop offset=".297" style="stop-color:#34d399"/><stop offset="1" style="stop-color:#3b82f6"/></linearGradient><path d="M19.2,657c-6.3-60.7-56.6-72.7-107.5-79.4C-66.5,623.8-37.2,667.5,19.2,657z" class="st10"/><linearGradient id="SVGID_12_" x1="71.896" x2="142.526" y1="482.59" y2="482.59" gradientUnits="userSpaceOnUse"><stop offset=".297" style="stop-color:#34d399"/><stop offset="1" style="stop-color:#3b82f6"/></linearGradient><path d="M5.2,540.5c59.6-13.2,65.8-64.4,66.7-115.8C28.5,451.6-11.6,485.7,5.2,540.5z" class="st11"/><linearGradient id="SVGID_13_" x1="-2.517" x2="70.636" y1="528.075" y2="528.075" gradientUnits="userSpaceOnUse"><stop offset=".297" style="stop-color:#34d399"/><stop offset="1" style="stop-color:#3b82f6"/></linearGradient><path d="M-6.5,585.3c17.2-58.5-24.6-88.7-69.2-114.4C-73,522-62.6,573.5-6.5,585.3z" class="st12"/><linearGradient id="SVGID_14_" x1="123.579" x2="218.586" y1="378.547" y2="378.547" gradientUnits="userSpaceOnUse"><stop offset=".297" style="stop-color:#34d399"/><stop offset="1" style="stop-color:#3b82f6"/></linearGradient><path d="M28.6,425.5c61,3.1,80.5-44.7,95-94C74.6,346,26.9,368.2,28.6,425.5z" class="st13"/><linearGradient id="SVGID_15_" x1="6.503" x2="60.396" y1="425.53" y2="425.53" gradientUnits="userSpaceOnUse"><stop offset=".297" style="stop-color:#34d399"/><stop offset="1" style="stop-color:#3b82f6"/></linearGradient><path d="M-10.6,491.2c36.6-48.8,8-91.7-24.8-131.3C-50.8,408.6-59,460.6-10.6,491.2z" class="st14"/><linearGradient id="SVGID_16_" x1="139.585" x2="224.788" y1="286.82" y2="286.82" gradientUnits="userSpaceOnUse"><stop offset=".297" style="stop-color:#34d399"/><stop offset="1" style="stop-color:#3b82f6"/></linearGradient><path d="M55.3,338.7c60.9-3.5,75.2-53.1,84.3-103.7C92.4,254.7,47.4,281.9,55.3,338.7z" class="st15"/><linearGradient id="SVGID_17_" x1="44.136" x2="96.112" y1="324.515" y2="324.515" gradientUnits="userSpaceOnUse"><stop offset=".297" style="stop-color:#34d399"/><stop offset="1" style="stop-color:#3b82f6"/></linearGradient><path d="M16.4,391.3c45.8-40.4,26.4-88.2,2.4-133.6C-6.2,302.3-24.8,351.5,16.4,391.3z" class="st16"/></g><linearGradient id="SVGID_18_" x1="216.89" x2="347.09" y1="908.626" y2="908.626" gradientUnits="userSpaceOnUse"><stop offset=".297" style="stop-color:#34d399"/><stop offset="1" style="stop-color:#3b82f6"/></linearGradient><path d="M347.1,896.5c-50.3-34.6-92-4.2-130.2,30.1C266.2,940,318.5,946.1,347.1,896.5z" class="st17"/><linearGradient id="SVGID_19_" x1="233.11" x2="335.01" y1="823.747" y2="823.747" gradientUnits="userSpaceOnUse"><stop offset=".297" style="stop-color:#34d399"/><stop offset="1" style="stop-color:#3b82f6"/></linearGradient><path d="M335,866.7c-2.2-61-51.5-76.3-101.9-86.5C251.8,827.8,278.1,873.3,335,866.7z" class="st18"/><linearGradient id="SVGID_20_" x1="125.17" x2="257.46" y1="876.271" y2="876.271" gradientUnits="userSpaceOnUse"><stop offset=".297" style="stop-color:#34d399"/><stop offset="1" style="stop-color:#3b82f6"/></linearGradient><path d="M257.5,869c-47.2-38.7-91.3-12-132.3,19C173.2,905.5,224.7,916,257.5,869z" class="st19"/><linearGradient id="SVGID_21_" x1="166.386" x2="224.769" y1="776.79" y2="776.79" gradientUnits="userSpaceOnUse"><stop offset=".297" style="stop-color:#34d399"/><stop offset="1" style="stop-color:#3b82f6"/></linearGradient><path d="M213.7,840c29.4-53.5-5-92-43.1-126.5C162.3,764,161.5,816.5,213.7,840z" class="st20"/><linearGradient id="SVGID_22_" x1="43.14" x2="175.56" y1="830.523" y2="830.523" gradientUnits="userSpaceOnUse"><stop offset=".297" style="stop-color:#34d399"/><stop offset="1" style="stop-color:#3b82f6"/></linearGradient><path d="M175.6,838.9c-34.7-50.2-84.5-36.6-132.4-18.1C84.5,850.9,131.2,875.1,175.6,838.9z" class="st21"/><linearGradient id="SVGID_23_" x1="101.131" x2="153.084" y1="727.255" y2="727.255" gradientUnits="userSpaceOnUse"><stop offset=".297" style="stop-color:#34d399"/><stop offset="1" style="stop-color:#3b82f6"/></linearGradient><path d="M126.6,794.1c44.9-41.3,24.5-88.8-0.5-133.6C102,705.6,84.5,755.2,126.6,794.1L126.6,794.1z" class="st22"/><linearGradient id="SVGID_24_" x1="-23.86" x2="102.71" y1="769.9" y2="769.9" gradientUnits="userSpaceOnUse"><stop offset=".297" style="stop-color:#34d399"/><stop offset="1" style="stop-color:#3b82f6"/></linearGradient><path d="M102.7,789c-24.5-55.9-76-52-126.6-42.9C11,783.5,52.2,816.2,102.7,789z" class="st23"/><linearGradient id="SVGID_25_" x1="45.844" x2="99.707" y1="669.285" y2="669.285" gradientUnits="userSpaceOnUse"><stop offset=".297" style="stop-color:#34d399"/><stop offset="1" style="stop-color:#3b82f6"/></linearGradient><path d="M61.8,735c51.8-32.3,40.6-82.7,24.3-131.4C54.1,643.5,27.7,689,61.8,735z" class="st24"/><linearGradient id="SVGID_26_" x1="-72.438" x2="43.732" y1="696.426" y2="696.426" gradientUnits="userSpaceOnUse"><stop offset=".297" style="stop-color:#34d399"/><stop offset="1" style="stop-color:#3b82f6"/></linearGradient><path d="M43.7,727.4C30.2,667.9-21,662-72.4,661.4C-45.2,704.7-11,744.5,43.7,727.4z" class="st25"/><linearGradient id="SVGID_27_" x1="17.233" x2="74.351" y1="576.09" y2="576.09" gradientUnits="userSpaceOnUse"><stop offset=".297" style="stop-color:#34d399"/><stop offset="1" style="stop-color:#3b82f6"/></linearGradient><path d="M28.4,640c55.1-26.2,49.8-77.5,39.2-127.8C31.2,548.2-0.2,590.3,28.4,640z" class="st26"/><linearGradient id="SVGID_28_" x1="-88.345" x2="19.165" y1="618.083" y2="618.083" gradientUnits="userSpaceOnUse"><stop offset=".297" style="stop-color:#34d399"/><stop offset="1" style="stop-color:#3b82f6"/></linearGradient><path d="M19.2,657c-6.3-60.7-56.6-72.7-107.5-79.4C-66.5,623.8-37.2,667.5,19.2,657z" class="st27"/><linearGradient id="SVGID_29_" x1="1.266" x2="71.896" y1="482.59" y2="482.59" gradientUnits="userSpaceOnUse"><stop offset=".297" style="stop-color:#34d399"/><stop offset="1" style="stop-color:#3b82f6"/></linearGradient><path d="M5.2,540.5c59.6-13.2,65.8-64.4,66.7-115.8C28.5,451.6-11.6,485.7,5.2,540.5z" class="st28"/><linearGradient id="SVGID_30_" x1="-75.669" x2="-2.517" y1="528.075" y2="528.075" gradientUnits="userSpaceOnUse"><stop offset=".297" style="stop-color:#34d399"/><stop offset="1" style="stop-color:#3b82f6"/></linearGradient><path d="M-6.5,585.3c17.2-58.5-24.6-88.7-69.2-114.4C-73,522-62.6,573.5-6.5,585.3z" class="st29"/><linearGradient id="SVGID_31_" x1="28.572" x2="123.579" y1="378.547" y2="378.547" gradientUnits="userSpaceOnUse"><stop offset=".297" style="stop-color:#34d399"/><stop offset="1" style="stop-color:#3b82f6"/></linearGradient><path d="M28.6,425.5c61,3.1,80.5-44.7,95-94C74.6,346,26.9,368.2,28.6,425.5z" class="st30"/><linearGradient id="SVGID_32_" x1="-47.391" x2="6.503" y1="425.53" y2="425.53" gradientUnits="userSpaceOnUse"><stop offset=".297" style="stop-color:#34d399"/><stop offset="1" style="stop-color:#3b82f6"/></linearGradient><path d="M-10.6,491.2c36.6-48.8,8-91.7-24.8-131.3C-50.8,408.6-59,460.6-10.6,491.2z" class="st31"/><linearGradient id="SVGID_33_" x1="54.382" x2="139.585" y1="286.82" y2="286.82" gradientUnits="userSpaceOnUse"><stop offset=".297" style="stop-color:#34d399"/><stop offset="1" style="stop-color:#3b82f6"/></linearGradient><path d="M55.3,338.7c60.9-3.5,75.2-53.1,84.3-103.7C92.4,254.7,47.4,281.9,55.3,338.7z" class="st32"/><linearGradient id="SVGID_34_" x1="-7.84" x2="44.136" y1="324.515" y2="324.515" gradientUnits="userSpaceOnUse"><stop offset=".297" style="stop-color:#34d399"/><stop offset="1" style="stop-color:#3b82f6"/></linearGradient><path d="M16.4,391.3c45.8-40.4,26.4-88.2,2.4-133.6C-6.2,302.3-24.8,351.5,16.4,391.3z" class="st33"/><linearGradient id="SVGID_35_" x1="359.872" x2="395.228" y1="884.151" y2="884.151" gradientUnits="userSpaceOnUse"><stop offset=".297" style="stop-color:#34d399"/><stop offset="1" style="stop-color:#3b82f6"/></linearGradient><path d="M395.2,884.2c0,9.8-7.9,17.7-17.7,17.7c-9.8,0-17.7-7.9-17.7-17.7c0-9.8,7.9-17.7,17.7-17.7 C387.3,866.5,395.2,874.4,395.2,884.2L395.2,884.2z" class="st34"/></g></svg>