<svg xmlns="http://www.w3.org/2000/svg" width="24" height="24" enable-background="new 0 0 24 24" version="1.0" viewBox="0 0 24 24"><path fill="currentColor" d="M11.651 13.87C11.651 13.87 11.651 13.87 11.651 13.87c-.574 0-1.148-.138-1.662-.399-.502-.267-.922-.613-1.223-1.003-.086-.111-.097-.262-.028-.385.068-.122.201-.188.344-.177 1.195.135 2.348-.496 2.907-1.567.53-1.01.41-2.261-.306-3.187-.085-.109-.098-.258-.032-.38.065-.122.178-.194.334-.184.414.03.881.169 1.35.404 1.774.932 2.477 3.134 1.571 4.911C14.267 13.119 13.02 13.87 11.651 13.87zM9.896 12.589c.13.095.27.183.417.262.415.211.868.319 1.339.319 1.108 0 2.117-.608 2.634-1.587.729-1.433.161-3.215-1.27-3.967-.11-.055-.222-.104-.33-.146.461 1.017.446 2.199-.076 3.195C12.057 11.722 11.045 12.429 9.896 12.589zM14.878 15.884H9.61c-.193 0-.35-.157-.35-.35s.156-.35.35-.35h5.268c.193 0 .35.157.35.35S15.071 15.884 14.878 15.884zM13.519 17.412H10.97c-.193 0-.35-.157-.35-.35s.156-.35.35-.35h2.549c.193 0 .35.157.35.35S13.712 17.412 13.519 17.412z"/></svg>
