<svg xmlns="http://www.w3.org/2000/svg" width="24" height="24" enable-background="new 0 0 24 24" version="1.0" viewBox="0 0 24 24"><path fill="#010101" d="M11.979 15.779c-.862 0-1.733-.281-2.462-.86-.814-.662-1.319-1.601-1.426-2.646-.106-1.047.2-2.071.862-2.882.639-.802 1.563-1.307 2.599-1.418 1.052-.114 2.084.19 2.905.858.211.149.41.348.574.579.112.157.075.376-.082.488-.158.112-.376.075-.488-.083-.118-.166-.262-.31-.427-.427-.692-.563-1.543-.813-2.407-.72-.849.092-1.604.504-2.129 1.162C8.952 10.499 8.7 11.34 8.788 12.201c.088.859.502 1.63 1.168 2.172 1.393 1.105 3.42.89 4.518-.484.121-.153.342-.177.492-.055.15.121.176.341.055.492C14.258 15.282 13.126 15.779 11.979 15.779zM12.001 6.793c-.193 0-.35-.157-.35-.35V5.029c0-.193.156-.35.35-.35s.35.157.35.35v1.414C12.351 6.637 12.194 6.793 12.001 6.793zM12.001 19.321c-.193 0-.35-.157-.35-.35v-1.387c0-.193.156-.35.35-.35s.35.157.35.35v1.387C12.351 19.164 12.194 19.321 12.001 19.321zM6.394 12.364H5.006c-.193 0-.35-.157-.35-.35s.156-.35.35-.35h1.388c.193 0 .35.157.35.35S6.587 12.364 6.394 12.364zM16.928 17.284c-.09 0-.179-.034-.247-.102l-.991-.988c-.137-.137-.138-.358-.001-.495.137-.138.358-.137.495-.001l.991.988c.137.137.138.358.001.495C17.107 17.25 17.018 17.284 16.928 17.284zM8.036 8.405c-.089 0-.179-.034-.247-.102L6.797 7.314C6.66 7.178 6.659 6.957 6.796 6.819c.136-.136.358-.137.495-.001l.992.988C8.42 7.943 8.421 8.165 8.284 8.302 8.216 8.37 8.126 8.405 8.036 8.405zM7.044 17.284c-.09 0-.18-.035-.248-.103-.137-.137-.136-.358.001-.495l.992-.988c.138-.136.359-.134.495.001.137.137.136.358-.001.495l-.992.988C7.223 17.25 7.133 17.284 7.044 17.284zM15.937 8.405c-.09 0-.18-.034-.248-.103-.137-.137-.136-.358.001-.495l.991-.988c.137-.136.358-.137.495.001.137.137.136.358-.001.495l-.991.988C16.115 8.371 16.026 8.405 15.937 8.405z"/><path fill="#010101" d="M17.777,14.512h-4.418c-0.063,0-0.123-0.017-0.175-0.047c-0.819-0.135-1.42-0.813-1.42-1.631    c0-0.869,0.737-1.607,1.629-1.649c0.131-1.099,1.069-1.953,2.203-1.953c1.188,0,2.165,0.915,2.242,2.069    c0.841,0.06,1.506,0.75,1.506,1.59c0,0.853-0.661,1.55-1.539,1.621C17.796,14.512,17.787,14.512,17.777,14.512z M13.495,13.812    h4.267c0.505-0.047,0.884-0.441,0.884-0.921c0-0.493-0.415-0.894-0.925-0.894c-0.133,0.019-0.194,0.027-0.255,0.027    c-0.112,0-0.219-0.054-0.284-0.146c-0.065-0.091-0.084-0.209-0.048-0.316c0.01-0.027,0.011-0.037,0.011-0.113    c0-0.851-0.68-1.517-1.548-1.517c-0.838,0-1.52,0.681-1.52,1.517v0.113c0,0.256-0.285,0.373-0.536,0.33    c-0.601,0.018-1.077,0.426-1.077,0.941c0,0.499,0.397,0.908,0.925,0.952C13.426,13.789,13.462,13.798,13.495,13.812z"/></svg>
